<svg width="60" height="69" viewBox="0 0 60 69" fill="none" xmlns="http://www.w3.org/2000/svg">
<path d="M8.23207 27.8743H0V32.1258H8.23207V27.8743Z" fill="#F54646"/>
<path d="M60 27.8743H51.7679V32.1258H60V27.8743Z" fill="#F54646"/>
<path d="M10.089 7.07891L7.08273 10.0852L13.0765 16.079L16.0828 13.0727L10.089 7.07891Z" fill="#F54646"/>
<path d="M32.1258 0H27.8742V8.23207H32.1258V0Z" fill="#F54646"/>
<path d="M49.9107 7.08285L43.9169 13.0767L46.9232 16.083L52.917 10.0892L49.9107 7.08285Z" fill="#F54646"/>
<path d="M13.0779 43.9129L7.08408 49.9067L10.0904 52.913L16.0842 46.9192L13.0779 43.9129Z" fill="#F54646"/>
<path d="M46.9245 43.917L43.9182 46.9233L49.9121 52.9172L52.9184 49.9109L46.9245 43.917Z" fill="#F54646"/>
<path d="M21.0133 59.0382C21.0133 60.2184 21.2458 61.387 21.6974 62.4773C22.149 63.5676 22.811 64.5583 23.6455 65.3928C24.4799 66.2273 25.4706 66.8893 26.561 67.3409C27.6513 67.7925 28.8199 68.025 30 68.025C31.1802 68.025 32.3488 67.7925 33.4391 67.3409C34.5294 66.8893 35.5201 66.2273 36.3546 65.3928C37.1891 64.5583 37.851 63.5676 38.3027 62.4773C38.7543 61.387 38.9867 60.2184 38.9867 59.0382V53.1445H21.0133V59.0382Z" fill="#F54646"/>
<path d="M38.9867 50.9602C38.9744 49.5307 39.2633 48.1147 39.8347 46.8044C40.4061 45.4941 41.2471 44.3188 42.3029 43.3552C45.092 40.8641 47.0593 37.5851 47.9448 33.9518C48.8303 30.3185 48.5922 26.5021 47.2621 23.007C45.9319 19.512 43.5723 16.5029 40.4953 14.3777C37.4182 12.2525 33.7686 11.1112 30.029 11.1048C26.2894 11.0983 22.6359 12.227 19.5515 14.3416C16.4672 16.4562 14.0972 19.4571 12.755 22.9475C11.4128 26.438 11.1616 30.2536 12.0345 33.8899C12.9075 37.5262 14.8635 40.8119 17.6439 43.3127C18.7098 44.2804 19.5605 45.4611 20.1409 46.7785C20.7214 48.0959 21.0186 49.5206 21.0133 50.9602V51.0186H38.9867V50.9602Z" fill="#F54646"/>
</svg>
