<svg width="61" height="60" viewBox="0 0 61 60" fill="none" xmlns="http://www.w3.org/2000/svg">
<path d="M3.15696 7.36824L8.55436 2.0537C9.28202 1.33822 10.1582 0.786108 11.1228 0.435217C12.0874 0.0843259 13.1177 -0.0570498 14.143 0.0207798C15.1683 0.0986094 16.1644 0.393804 17.063 0.886131C17.9616 1.37846 18.7415 2.05628 19.3492 2.87313L24.6039 9.89674C25.2597 10.7824 25.6959 11.8069 25.8775 12.8883C26.0592 13.9697 25.9813 15.0779 25.6501 16.1243L25.341 17.014C24.699 19.0977 23.8668 21.6964 23.3437 23.4289C23.181 23.9714 23.2232 24.5535 23.4626 25.0677C24.7514 27.6357 26.4179 30.0024 28.4082 32.0914C28.6311 32.309 28.808 32.5679 28.9287 32.8532C29.0494 33.1385 29.1116 33.4445 29.1116 33.7536C29.1116 34.0627 29.0494 34.3687 28.9287 34.654C28.808 34.9393 28.6311 35.1982 28.4082 35.4159C27.9628 35.8519 27.3601 36.0967 26.732 36.0967C26.1038 36.0967 25.5012 35.8519 25.0557 35.4159C22.6932 32.9852 20.7208 30.2142 19.2065 27.1982C18.4118 25.6194 18.267 23.7993 18.8023 22.1178C19.3016 20.4322 20.1576 17.7632 20.8233 15.6795L21.1087 14.7664C21.1983 14.4156 21.2041 14.0492 21.1258 13.6958C21.0474 13.3424 20.8869 13.0117 20.6569 12.7296L15.4022 5.70598C15.2002 5.43444 14.9411 5.20899 14.6426 5.04498C14.3441 4.88097 14.0131 4.78227 13.6724 4.75561C13.3316 4.72894 12.989 4.77494 12.6679 4.89046C12.3468 5.00599 12.0549 5.18832 11.8118 5.42504L10.2188 6.99364L14.9742 14.2514C15.2045 14.6048 15.334 15.0128 15.3492 15.4324C15.3643 15.8521 15.2646 16.2681 15.0603 16.6367C14.8561 17.0054 14.5549 17.3132 14.1884 17.5278C13.8218 17.7425 13.4034 17.8561 12.9769 17.8568C12.5813 17.8587 12.1914 17.7633 11.8426 17.5794C11.4939 17.3954 11.1972 17.1287 10.9796 16.8033L6.77108 10.3884L6.39065 10.7396C5.83842 11.3312 5.4111 12.0249 5.13354 12.7805C4.85597 13.5361 4.73369 14.3385 4.7738 15.141C4.7738 19.2616 7.60328 26.8471 20.7758 39.5832C34.5903 52.9281 45.5515 58.3128 50.093 53.7943L55.633 48.4095C55.8744 48.1718 56.0609 47.8856 56.1799 47.5705C56.2989 47.2553 56.3475 46.9187 56.3226 46.5834C56.2952 46.2461 56.1938 45.9186 56.0255 45.6236C55.8572 45.3285 55.626 45.0729 55.3477 44.8743L48.2146 39.7003C47.9173 39.4861 47.5735 39.343 47.2104 39.282C46.8473 39.2211 46.4748 39.244 46.1222 39.3491L41.6283 40.7304L46.6928 44.2656C46.95 44.443 47.1689 44.6689 47.337 44.9301C47.505 45.1912 47.6188 45.4826 47.6719 45.7874C47.7249 46.0921 47.7162 46.4042 47.6461 46.7056C47.576 47.0069 47.4459 47.2917 47.2635 47.5433C47.0424 47.8491 46.7498 48.0981 46.4105 48.2692C46.0712 48.4403 45.695 48.5286 45.3138 48.5266C44.8289 48.5255 44.356 48.3784 43.9585 48.1052L34.9232 41.8542C34.6642 41.6785 34.4431 41.4541 34.2728 41.1937C34.1025 40.9334 33.9863 40.6424 33.931 40.3375C33.8758 40.0327 33.8825 39.7201 33.9507 39.4178C34.019 39.1155 34.1475 38.8295 34.3287 38.5765C34.6436 38.1671 35.0864 37.8709 35.5889 37.7337L44.6242 34.8774C45.687 34.5513 46.8125 34.4746 47.9107 34.6534C49.009 34.8323 50.0495 35.2618 50.9489 35.9075L58.0821 41.0816C58.9117 41.6799 59.6 42.4478 60.1001 43.3326C60.6001 44.2174 60.8999 45.1982 60.9789 46.2078C61.0579 47.2174 60.9144 48.2318 60.558 49.1816C60.2016 50.1314 59.6409 50.9942 58.9143 51.7106L53.5169 57.0486C52.5444 58.005 51.3865 58.759 50.1121 59.2658C48.8376 59.7726 47.4727 60.0218 46.0984 59.9985C40.1066 59.9985 31.0713 55.9014 17.5659 42.8609C6.05777 31.7402 0.184826 22.3988 0.137272 15.0942C0.0791321 13.6717 0.317013 12.2526 0.836304 10.924C1.35559 9.59536 2.14532 8.38532 3.15696 7.36824Z" fill="#F54646"/>
</svg>
