<svg width="62" height="62" viewBox="0 0 62 62" fill="none" xmlns="http://www.w3.org/2000/svg">
<path d="M31 61C47.5685 61 61 47.5685 61 31C61 14.4315 47.5685 1 31 1C14.4315 1 1 14.4315 1 31C1 47.5685 14.4315 61 31 61Z" stroke="#F54646" stroke-width="2" stroke-miterlimit="10" stroke-linecap="round" stroke-linejoin="round"/>
<path d="M19.5 11.2C28.2 6.00002 39.7 7.20002 47.2 14.7C51.6 19.1 53.8 24.8 53.9 30.6" stroke="#F54646" stroke-width="2" stroke-miterlimit="10" stroke-linecap="round" stroke-linejoin="round"/>
<path d="M8.40033 32.1C8.30033 30.3 8.40033 28.4 8.80033 26.6" stroke="#F54646" stroke-width="2" stroke-miterlimit="10" stroke-linecap="round" stroke-linejoin="round"/>
<path d="M37.1 52.7C29.5 54.8 21 52.8 15 46.8C12.4 44.2 10.6 41.2 9.5 38" stroke="#F54646" stroke-width="2" stroke-miterlimit="10" stroke-linecap="round" stroke-linejoin="round"/>
<path d="M50.6998 42.3C49.6998 43.9 48.5998 45.4 47.1998 46.8C46.1998 47.8 44.9998 48.8 43.7998 49.6" stroke="#F54646" stroke-width="2" stroke-miterlimit="10" stroke-linecap="round" stroke-linejoin="round"/>
<path d="M27.7998 44.8V30.2C27.7998 28.4 29.1998 27 30.9998 27C32.7998 27 34.1998 28.4 34.1998 30.2V44.8C34.1998 46.6 32.7998 48 30.9998 48C29.1998 48 27.7998 46.6 27.7998 44.8Z" stroke="#F54646" stroke-width="2" stroke-miterlimit="10" stroke-linecap="round" stroke-linejoin="round"/>
<path d="M27.7998 18V17.2C27.7998 15.4 29.1998 14 30.9998 14C32.7998 14 34.1998 15.4 34.1998 17.2V18C34.1998 19.8 32.7998 21.2 30.9998 21.2C29.1998 21.3 27.7998 19.8 27.7998 18Z" stroke="#F54646" stroke-width="2" stroke-miterlimit="10" stroke-linecap="round" stroke-linejoin="round"/>
</svg>
