<svg width="194" height="67" viewBox="0 0 194 67" fill="none" xmlns="http://www.w3.org/2000/svg">
<path d="M15.6333 6.16068L24.3039 1.1547L32.9745 6.16068V16.1726L24.3039 21.1786L15.6333 16.1726V6.16068Z" fill="white" stroke="#483875" stroke-width="2"/>
<path d="M15.6333 10.5398L24.3039 5.53379L32.9745 10.5398V20.5517L24.3039 25.5577L15.6333 20.5517V10.5398Z" fill="white" stroke="#483875" stroke-width="2"/>
<path d="M12.2201 19.9548L24.3039 12.9782L36.3877 19.9548V33.9079L24.3039 40.8845L12.2201 33.9079V19.9548Z" fill="white" stroke="#483875" stroke-width="2"/>
<path d="M24.3889 12L30.0181 19.5V34.5L24.3889 42L18.7597 34.5V19.5L24.3889 12Z" fill="#F54646"/>
<rect y="59.9935" width="48.1699" height="7.00654" rx="1" fill="#483875"/>
<rect x="3.94118" y="60.8693" width="40.2876" height="5.2549" fill="white"/>
<rect x="9.63399" y="61.7451" width="22.3333" height="3.50327" fill="#F54646"/>
<rect x="13.1373" y="62.183" width="0.437909" height="2.62745" fill="white"/>
<rect x="16.2026" y="62.183" width="0.437909" height="2.62745" fill="white"/>
<rect x="19.268" y="62.183" width="0.437909" height="2.62745" fill="white"/>
<rect x="22.3333" y="62.183" width="0.437909" height="2.62745" fill="white"/>
<rect x="25.3987" y="62.183" width="0.437909" height="2.62745" fill="white"/>
<rect x="28.4641" y="62.183" width="0.437909" height="2.62745" fill="white"/>
<circle cx="38.098" cy="63.4967" r="0.875817" fill="#483875"/>
<path d="M11.1667 57.8039H37.4412L44.2288 59.9935H3.94118L11.1667 57.8039Z" fill="#483875"/>
<rect y="50.3595" width="48.1699" height="7.00654" rx="1" fill="#483875"/>
<rect x="3.94118" y="51.2353" width="40.2876" height="5.2549" fill="white"/>
<rect x="9.63399" y="52.1111" width="22.3333" height="3.50327" fill="#F54646"/>
<rect x="13.1373" y="52.549" width="0.437909" height="2.62745" fill="white"/>
<rect x="16.2026" y="52.549" width="0.437909" height="2.62745" fill="white"/>
<rect x="19.268" y="52.549" width="0.437909" height="2.62745" fill="white"/>
<rect x="22.3333" y="52.549" width="0.437909" height="2.62745" fill="white"/>
<rect x="25.3987" y="52.549" width="0.437909" height="2.62745" fill="white"/>
<rect x="28.4641" y="52.549" width="0.437909" height="2.62745" fill="white"/>
<circle cx="38.098" cy="53.8627" r="0.875817" fill="#483875"/>
<path d="M11.1667 48.1699H37.4412L44.2288 50.3595H3.94118L11.1667 48.1699Z" fill="#483875"/>
<rect y="40.7255" width="48.1699" height="7.00654" rx="1" fill="#483875"/>
<rect x="3.94118" y="41.6013" width="40.2876" height="5.2549" fill="white"/>
<rect x="9.63399" y="42.4771" width="22.3333" height="3.50327" fill="#F54646"/>
<rect x="13.1373" y="42.915" width="0.437909" height="2.62745" fill="white"/>
<rect x="16.2026" y="42.915" width="0.437909" height="2.62745" fill="white"/>
<rect x="19.268" y="42.915" width="0.437909" height="2.62745" fill="white"/>
<rect x="22.3333" y="42.915" width="0.437909" height="2.62745" fill="white"/>
<rect x="25.3987" y="42.915" width="0.437909" height="2.62745" fill="white"/>
<rect x="28.4641" y="42.915" width="0.437909" height="2.62745" fill="white"/>
<circle cx="38.098" cy="44.2288" r="0.875817" fill="#483875"/>
<path d="M11.1667 33.7189H37.4412L44.2288 40.7255H3.94118L11.1667 33.7189Z" fill="#483875"/>
<rect x="19.8889" y="22.668" width="2.71429" height="9.01845" rx="1.35715" fill="white"/>
<rect x="25.4926" y="26.6081" width="1.22581" height="2.88941" transform="rotate(90 25.4926 26.6081)" fill="white"/>
<rect x="25.4926" y="22.668" width="2.71429" height="9.01845" rx="1.35715" fill="white"/>
<rect x="27.4406" y="19.15" width="1.49436" height="5.08307" rx="0.747178" fill="white" stroke="#F54646" stroke-width="0.3"/>
<rect x="24.5248" y="19.15" width="1.49436" height="5.08307" rx="0.747178" fill="white" stroke="#F54646" stroke-width="0.3"/>
<rect x="27.9635" y="21.2429" width="0.672884" height="2.46724" transform="rotate(90 27.9635 21.2429)" fill="white"/>
<rect x="1.31372" y="47.732" width="0.875817" height="2.62745" fill="#483875"/>
<rect x="1.31372" y="57.366" width="0.875817" height="2.62745" fill="#483875"/>
<rect x="45.9804" y="57.366" width="0.875817" height="2.62745" fill="#483875"/>
<rect x="45.9804" y="47.732" width="0.875817" height="2.62745" fill="#483875"/>
<path d="M91.0189 32V11.99H95.8789V20.09H103.229V11.99H108.059V32H103.229V24.05H95.8789V32H91.0189ZM121.228 32.42C119.248 32.42 117.528 32.05 116.068 31.31C114.608 30.55 113.468 29.4 112.648 27.86C111.848 26.32 111.448 24.37 111.448 22.01C111.448 18.59 112.308 16 114.028 14.24C115.748 12.48 118.148 11.6 121.228 11.6C123.208 11.6 124.928 11.98 126.388 12.74C127.868 13.48 129.008 14.61 129.808 16.13C130.608 17.65 131.008 19.6 131.008 21.98C131.008 25.42 130.148 28.02 128.428 29.78C126.728 31.54 124.328 32.42 121.228 32.42ZM121.228 28.43C122.248 28.43 123.108 28.22 123.808 27.8C124.528 27.38 125.068 26.7 125.428 25.76C125.808 24.8 125.998 23.54 125.998 21.98C125.998 20.4 125.808 19.14 125.428 18.2C125.068 17.26 124.528 16.59 123.808 16.19C123.108 15.77 122.248 15.56 121.228 15.56C120.208 15.56 119.348 15.77 118.648 16.19C117.948 16.61 117.408 17.29 117.028 18.23C116.668 19.17 116.488 20.44 116.488 22.04C116.488 23.62 116.668 24.88 117.028 25.82C117.408 26.74 117.948 27.41 118.648 27.83C119.348 28.23 120.208 28.43 121.228 28.43ZM141.157 32.42C140.137 32.42 139.217 32.37 138.397 32.27C137.577 32.17 136.817 32.02 136.117 31.82C135.417 31.62 134.737 31.36 134.077 31.04V26.42C134.997 27.16 136.037 27.72 137.197 28.1C138.357 28.48 139.457 28.67 140.497 28.67C141.417 28.67 142.117 28.5 142.597 28.16C143.097 27.8 143.347 27.26 143.347 26.54C143.347 26 143.117 25.57 142.657 25.25C142.217 24.91 141.627 24.62 140.887 24.38C140.147 24.12 139.317 23.83 138.397 23.51C137.817 23.33 137.247 23.1 136.687 22.82C136.127 22.54 135.627 22.19 135.187 21.77C134.747 21.33 134.397 20.8 134.137 20.18C133.877 19.56 133.747 18.8 133.747 17.9C133.747 17.08 133.897 16.29 134.197 15.53C134.497 14.77 134.957 14.09 135.577 13.49C136.217 12.89 137.027 12.42 138.007 12.08C138.987 11.72 140.137 11.54 141.457 11.54C142.277 11.54 142.997 11.59 143.617 11.69C144.257 11.79 144.867 11.94 145.447 12.14C146.027 12.32 146.617 12.56 147.217 12.86V17.54C146.757 17.16 146.237 16.81 145.657 16.49C145.097 16.15 144.507 15.87 143.887 15.65C143.267 15.43 142.617 15.31 141.937 15.29C141.337 15.27 140.787 15.33 140.287 15.47C139.787 15.61 139.397 15.84 139.117 16.16C138.837 16.46 138.697 16.85 138.697 17.33C138.697 17.89 138.867 18.33 139.207 18.65C139.547 18.97 140.017 19.24 140.617 19.46C141.217 19.66 141.887 19.88 142.627 20.12C143.447 20.36 144.197 20.63 144.877 20.93C145.577 21.21 146.187 21.57 146.707 22.01C147.227 22.45 147.627 22.99 147.907 23.63C148.187 24.27 148.327 25.04 148.327 25.94C148.327 27.14 148.047 28.24 147.487 29.24C146.927 30.22 146.117 31 145.057 31.58C143.997 32.14 142.697 32.42 141.157 32.42ZM155.951 32V15.74H150.341V11.99H166.511V15.74H160.811V32H155.951Z" fill="#483875"/>
<path d="M99.1669 60V47.994H102.083V52.854H106.493V47.994H109.391V60H106.493V55.23H102.083V60H99.1669ZM117.292 60.252C116.104 60.252 115.072 60.03 114.196 59.586C113.32 59.13 112.636 58.44 112.144 57.516C111.664 56.592 111.424 55.422 111.424 54.006C111.424 51.954 111.94 50.4 112.972 49.344C114.004 48.288 115.444 47.76 117.292 47.76C118.48 47.76 119.512 47.988 120.388 48.444C121.276 48.888 121.96 49.566 122.44 50.478C122.92 51.39 123.16 52.56 123.16 53.988C123.16 56.052 122.644 57.612 121.612 58.668C120.592 59.724 119.152 60.252 117.292 60.252ZM117.292 57.858C117.904 57.858 118.42 57.732 118.84 57.48C119.272 57.228 119.596 56.82 119.812 56.256C120.04 55.68 120.154 54.924 120.154 53.988C120.154 53.04 120.04 52.284 119.812 51.72C119.596 51.156 119.272 50.754 118.84 50.514C118.42 50.262 117.904 50.136 117.292 50.136C116.68 50.136 116.164 50.262 115.744 50.514C115.324 50.766 115 51.174 114.772 51.738C114.556 52.302 114.448 53.064 114.448 54.024C114.448 54.972 114.556 55.728 114.772 56.292C115 56.844 115.324 57.246 115.744 57.498C116.164 57.738 116.68 57.858 117.292 57.858ZM130.744 60.378C128.896 60.378 127.51 59.988 126.586 59.208C125.674 58.416 125.218 57.186 125.218 55.518V47.994H128.26V55.392C128.26 56.316 128.446 57 128.818 57.444C129.19 57.888 129.784 58.11 130.6 58.11C131.344 58.11 131.92 57.888 132.328 57.444C132.748 57 132.958 56.316 132.958 55.392V47.994H135.73V55.518C135.73 56.634 135.514 57.552 135.082 58.272C134.662 58.98 134.08 59.508 133.336 59.856C132.592 60.204 131.728 60.378 130.744 60.378ZM142.31 60.252C141.698 60.252 141.146 60.222 140.654 60.162C140.162 60.102 139.706 60.012 139.286 59.892C138.866 59.772 138.458 59.616 138.062 59.424V56.652C138.614 57.096 139.238 57.432 139.934 57.66C140.63 57.888 141.29 58.002 141.914 58.002C142.466 58.002 142.886 57.9 143.174 57.696C143.474 57.48 143.624 57.156 143.624 56.724C143.624 56.4 143.486 56.142 143.21 55.95C142.946 55.746 142.592 55.572 142.148 55.428C141.704 55.272 141.206 55.098 140.654 54.906C140.306 54.798 139.964 54.66 139.628 54.492C139.292 54.324 138.992 54.114 138.728 53.862C138.464 53.598 138.254 53.28 138.098 52.908C137.942 52.536 137.864 52.08 137.864 51.54C137.864 51.048 137.954 50.574 138.134 50.118C138.314 49.662 138.59 49.254 138.962 48.894C139.346 48.534 139.832 48.252 140.42 48.048C141.008 47.832 141.698 47.724 142.49 47.724C142.982 47.724 143.414 47.754 143.786 47.814C144.17 47.874 144.536 47.964 144.884 48.084C145.232 48.192 145.586 48.336 145.946 48.516V51.324C145.67 51.096 145.358 50.886 145.01 50.694C144.674 50.49 144.32 50.322 143.948 50.19C143.576 50.058 143.186 49.986 142.778 49.974C142.418 49.962 142.088 49.998 141.788 50.082C141.488 50.166 141.254 50.304 141.086 50.496C140.918 50.676 140.834 50.91 140.834 51.198C140.834 51.534 140.936 51.798 141.14 51.99C141.344 52.182 141.626 52.344 141.986 52.476C142.346 52.596 142.748 52.728 143.192 52.872C143.684 53.016 144.134 53.178 144.542 53.358C144.962 53.526 145.328 53.742 145.64 54.006C145.952 54.27 146.192 54.594 146.36 54.978C146.528 55.362 146.612 55.824 146.612 56.364C146.612 57.084 146.444 57.744 146.108 58.344C145.772 58.932 145.286 59.4 144.65 59.748C144.014 60.084 143.234 60.252 142.31 60.252ZM148.667 60V47.994H156.893V50.244H151.583V52.854H156.191V55.122H151.583V57.75H156.893V60H148.667Z" fill="#F54646"/>
<rect x="62.8889" y="53" width="32" height="1" fill="#483875"/>
<rect x="161.889" y="53" width="32" height="1" fill="#483875"/>
</svg>
