<svg width="51" height="60" viewBox="0 0 51 60" fill="none" xmlns="http://www.w3.org/2000/svg">
<path d="M49.0666 4.76988C41.1029 4.26778 33.3961 2.51046 25.6893 0C18.2394 2.51046 10.5326 4.26778 2.31204 4.76988C1.02757 5.02092 0 6.0251 0 7.28034V35.1464C0 42.6778 4.36719 49.7071 11.3033 53.2218L24.4049 59.749C24.6618 60 25.1755 60 25.4324 60C25.9462 60 26.2031 60 26.46 59.749L39.5616 53.2218C46.4977 49.7071 50.8649 42.9289 50.8649 35.1464V7.28034C51.3787 6.0251 50.3511 5.02092 49.0666 4.76988ZM37.7633 48.7029L25.6893 54.728V30.1255H5.13787V9.7908C12.074 9.03766 19.0101 7.53138 25.6893 5.52301V30.1255H46.2408V35.3975C46.2408 40.9205 42.9012 46.1925 37.7633 48.7029Z" fill="#483875"/>
<path d="M40.5025 16.2254V15.8451C40.5025 15.1391 40.2204 14.462 39.7183 13.9628C39.2161 13.4636 38.5351 13.1831 37.825 13.1831C37.1149 13.1831 36.4339 13.4636 35.9317 13.9628C35.4296 14.462 35.1475 15.1391 35.1475 15.8451V16.2254C34.8432 16.2254 34.5513 16.3456 34.3361 16.5595C34.1209 16.7735 34 17.0636 34 17.3662V21.169C34 21.4716 34.1209 21.7618 34.3361 21.9757C34.5513 22.1897 34.8432 22.3099 35.1475 22.3099H40.5025C40.8068 22.3099 41.0987 22.1897 41.3139 21.9757C41.5291 21.7618 41.65 21.4716 41.65 21.169V17.3662C41.65 17.0636 41.5291 16.7735 41.3139 16.5595C41.0987 16.3456 40.8068 16.2254 40.5025 16.2254ZM38.2075 19.1611V20.4085C38.2075 20.5093 38.1672 20.606 38.0955 20.6774C38.0237 20.7487 37.9264 20.7887 37.825 20.7887C37.7236 20.7887 37.6263 20.7487 37.5545 20.6774C37.4828 20.606 37.4425 20.5093 37.4425 20.4085V19.1611C37.2967 19.0774 37.1827 18.9482 37.1182 18.7935C37.0538 18.6388 37.0425 18.4673 37.0861 18.3056C37.1297 18.1439 37.2257 18.001 37.3593 17.8991C37.4929 17.7971 37.6566 17.7419 37.825 17.7419C37.9934 17.7419 38.1571 17.7971 38.2907 17.8991C38.4243 18.001 38.5203 18.1439 38.5639 18.3056C38.6075 18.4673 38.5962 18.6388 38.5318 18.7935C38.4673 18.9482 38.3533 19.0774 38.2075 19.1611ZM39.7375 16.2254H35.9125V15.8451C35.9125 15.3408 36.114 14.8572 36.4727 14.5006C36.8313 14.144 37.3178 13.9437 37.825 13.9437C38.3322 13.9437 38.8187 14.144 39.1773 14.5006C39.536 14.8572 39.7375 15.3408 39.7375 15.8451V16.2254Z" fill="white"/>
<path d="M13.4725 36.7607C11.6493 36.7607 10.2 38.2016 10.2 40.0143C10.2 41.8269 11.6493 43.2678 13.4725 43.2678C15.2958 43.2678 16.745 41.8269 16.745 40.0143C16.745 38.2016 15.2958 36.7607 13.4725 36.7607ZM12.7713 40.4791C12.1168 40.4791 11.6025 39.9678 11.6025 39.3171C11.6025 38.6664 12.1168 38.1551 12.7713 38.1551C13.4258 38.1551 13.94 38.6664 13.94 39.3171C13.94 39.9678 13.4258 40.4791 12.7713 40.4791Z" fill="white"/>
<path d="M16.2775 40.9438L14.4075 42.803L15.3425 43.7326H16.2775V44.6622H17.2125V45.5917L17.5398 45.9171C17.6333 46.01 17.7268 46.0565 17.867 46.0565H19.0825C19.363 46.0565 19.55 45.8706 19.55 45.5917V44.3833C19.55 44.2438 19.5033 44.1509 19.4098 44.0579L16.2775 40.9438Z" fill="white"/>
</svg>
