<svg width="60" height="71" viewBox="0 0 60 71" fill="none" xmlns="http://www.w3.org/2000/svg">
<path d="M57.7254 5.64435C48.3564 5.05021 39.2896 2.97071 30.2227 0C21.4582 2.97071 12.3913 5.05021 2.72005 5.64435C1.20891 5.94142 0 7.12971 0 8.61506V41.59C0 50.5021 5.13787 58.8201 13.298 62.9791L28.7116 70.7029C29.0138 71 29.6183 71 29.9205 71C30.525 71 30.8272 71 31.1294 70.7029L46.543 62.9791C54.7032 58.8201 59.841 50.7992 59.841 41.59V8.61506C60.4455 7.12971 59.2366 5.94142 57.7254 5.64435ZM44.4274 57.6318L30.2227 64.7615V35.6485H6.04455V11.5858C14.2047 10.6946 22.3648 8.91213 30.2227 6.53556V35.6485H54.4009V41.887C54.4009 48.4226 50.472 54.6611 44.4274 57.6318Z" fill="#483875"/>
<path d="M47.65 19.2V18.75C47.65 17.9145 47.3181 17.1133 46.7274 16.5226C46.1366 15.9318 45.3354 15.6 44.5 15.6C43.6646 15.6 42.8634 15.9318 42.2726 16.5226C41.6819 17.1133 41.35 17.9145 41.35 18.75V19.2C40.992 19.2 40.6486 19.3422 40.3954 19.5954C40.1422 19.8486 40 20.1919 40 20.55V25.05C40 25.408 40.1422 25.7514 40.3954 26.0046C40.6486 26.2577 40.992 26.4 41.35 26.4H47.65C48.008 26.4 48.3514 26.2577 48.6046 26.0046C48.8578 25.7514 49 25.408 49 25.05V20.55C49 20.1919 48.8578 19.8486 48.6046 19.5954C48.3514 19.3422 48.008 19.2 47.65 19.2ZM44.95 22.674V24.15C44.95 24.2693 44.9026 24.3838 44.8182 24.4682C44.7338 24.5526 44.6193 24.6 44.5 24.6C44.3807 24.6 44.2662 24.5526 44.1818 24.4682C44.0974 24.3838 44.05 24.2693 44.05 24.15V22.674C43.8784 22.5749 43.7443 22.422 43.6685 22.239C43.5927 22.0559 43.5794 21.853 43.6307 21.6616C43.6819 21.4702 43.7949 21.3011 43.9521 21.1805C44.1093 21.0599 44.3019 20.9946 44.5 20.9946C44.6981 20.9946 44.8907 21.0599 45.0479 21.1805C45.2051 21.3011 45.3181 21.4702 45.3693 21.6616C45.4206 21.853 45.4073 22.0559 45.3315 22.239C45.2557 22.422 45.1216 22.5749 44.95 22.674ZM46.75 19.2H42.25V18.75C42.25 18.1532 42.4871 17.5809 42.909 17.159C43.331 16.737 43.9033 16.5 44.5 16.5C45.0967 16.5 45.669 16.737 46.091 17.159C46.5129 17.5809 46.75 18.1532 46.75 18.75V19.2Z" fill="white"/>
<path d="M15.85 43.5C13.705 43.5 12 45.205 12 47.35C12 49.495 13.705 51.2 15.85 51.2C17.995 51.2 19.7 49.495 19.7 47.35C19.7 45.205 17.995 43.5 15.85 43.5ZM15.025 47.9C14.255 47.9 13.65 47.295 13.65 46.525C13.65 45.755 14.255 45.15 15.025 45.15C15.795 45.15 16.4 45.755 16.4 46.525C16.4 47.295 15.795 47.9 15.025 47.9Z" fill="white"/>
<path d="M19.15 48.45L16.95 50.65L18.05 51.75H19.15V52.85H20.25V53.95L20.635 54.335C20.745 54.445 20.855 54.5 21.02 54.5H22.45C22.78 54.5 23 54.28 23 53.95V52.52C23 52.355 22.945 52.245 22.835 52.135L19.15 48.45Z" fill="white"/>
</svg>
