<svg width="17" height="17" viewBox="0 0 17 17" fill="none" xmlns="http://www.w3.org/2000/svg">
<path d="M7.14201 11.8332L3.86364 8.55474L4.95643 7.46195L7.14201 9.64761L11.5132 5.27637L12.606 6.36917L7.14201 11.8332Z" fill="#F54646"/>
<path fill-rule="evenodd" clip-rule="evenodd" d="M0 3.09091C0 1.38385 1.38385 0 3.09091 0H13.9091C15.6161 0 17 1.38385 17 3.09091V13.9091C17 15.6161 15.6161 17 13.9091 17H3.09091C1.38385 17 0 15.6161 0 13.9091V3.09091ZM3.09091 1.54545H13.9091C14.7626 1.54545 15.4545 2.23738 15.4545 3.09091V13.9091C15.4545 14.7626 14.7626 15.4545 13.9091 15.4545H3.09091C2.23738 15.4545 1.54545 14.7626 1.54545 13.9091V3.09091C1.54545 2.23738 2.23738 1.54545 3.09091 1.54545Z" fill="#F54646"/>
</svg>
