<svg width="83" height="60" viewBox="0 0 83 60" fill="none" xmlns="http://www.w3.org/2000/svg">
<path d="M80 25.7139C76.5714 25.7139 73.4285 27.4282 71.7143 30.571C70.5714 32.571 69.1428 34.2853 67.4285 35.7139C66.2857 36.8567 66 38.571 67.1428 39.7139C67.7143 40.2853 68.5714 40.8567 69.4285 40.8567C70 40.8567 70.8571 40.571 71.1428 40.2853C73.4285 38.2853 75.4285 36.2853 76.8571 33.7139C77.7143 32.571 78.8571 31.7139 80 31.7139C81.7143 31.7139 82.8571 30.571 82.8571 28.8567C82.8571 27.1424 81.7143 25.7139 80 25.7139Z" fill="#483875"/>
<path d="M72.9828 16C71.8379 14.8571 70.1207 14.8571 68.9759 16C67.2586 17.7143 64.6828 18.2857 62.3931 17.4286C61.2483 17.1429 60.3897 17.4286 59.531 18L50.0862 27.4286C47.2241 30.2857 42.3586 30.5714 38.6379 28.2857L47.7966 19.1429L50.6586 16.2857C51.8034 15.1429 51.8034 13.4286 50.6586 12.2857C49.5138 11.1429 47.7965 11.1429 46.6517 12.2857L44.6483 14.2857H36.6345C40.3552 8.85714 46.3655 5.71429 52.9483 5.71429H80.1379C81.8552 5.71429 83 4.57143 83 2.85714C83 1.14286 81.8552 0 80.1379 0H52.9483C43.2172 0 34.3448 5.71429 30.0517 14.2857H8.58621C3.72069 14.2857 0 18 0 22.8571V25.7143H5.72414H33.2L32.3414 26.5714C31.1966 27.7143 31.1966 29.4286 32.3414 30.5714C32.6276 30.8571 32.9138 31.1429 33.4862 31.4286H5.72414H2.86207H0V51.4286C0 56.2857 3.72069 60 8.58621 60H57.2414C62.1069 60 65.8276 56.2857 65.8276 51.4286V23.4286C68.4035 23.1429 70.9793 22 72.9828 20C74.1276 18.8571 74.1276 17.1429 72.9828 16ZM20.0345 48.5714H14.3103C12.5931 48.5714 11.4483 47.4286 11.4483 45.7143C11.4483 44 12.5931 42.8571 14.3103 42.8571H20.0345C21.7517 42.8571 22.8966 44 22.8966 45.7143C22.8966 47.4286 21.7517 48.5714 20.0345 48.5714ZM48.6552 48.5714C46.9379 48.5714 45.5069 47.7143 44.3621 46.5714C43.2172 47.7143 41.7862 48.5714 40.069 48.5714C36.9207 48.5714 34.3448 46 34.3448 42.8571C34.3448 39.7143 36.9207 37.1429 40.069 37.1429C41.7862 37.1429 43.2172 38 44.3621 39.1429C45.5069 38 46.9379 37.1429 48.6552 37.1429C51.8034 37.1429 54.3793 39.7143 54.3793 42.8571C54.3793 46 51.8034 48.5714 48.6552 48.5714Z" fill="#483875"/>
</svg>
