<svg width="59" height="65" viewBox="0 0 59 65" fill="none" xmlns="http://www.w3.org/2000/svg">
<path d="M29.5 0C13.275 0 0 13.097 0 29.1045V36.3806C0 43.1716 5.40833 48.5075 12.2917 48.5075C13.7667 48.5075 14.75 47.5373 14.75 46.0821V26.6791C14.75 25.2239 13.7667 24.2537 12.2917 24.2537C9.5875 24.2537 7.12917 25.2239 5.1625 26.6791C6.39167 14.5522 16.9625 4.85075 29.5 4.85075C42.0375 4.85075 52.6083 14.3097 53.8375 26.6791C51.8708 25.2239 49.4125 24.2537 46.7083 24.2537C45.2333 24.2537 44.25 25.2239 44.25 26.6791V46.0821C44.25 47.5373 45.2333 48.5075 46.7083 48.5075C48.1833 48.5075 49.9042 48.2649 51.1333 47.5373C48.4292 52.3881 44.25 56.2687 39.0875 58.4515C38.5958 55.541 36.1375 53.1157 32.9417 53.1157C29.7458 53.1157 27.0417 55.7836 27.0417 58.9366C27.0417 60.6343 27.7792 62.3321 29.2542 63.5448C30.4833 64.5149 31.7125 65 33.1875 65C33.4333 65 33.925 65 34.1708 65C48.1833 63.0597 59 50.6903 59 36.3806V29.1045C59 13.097 45.725 0 29.5 0Z" fill="#483875"/>
</svg>
