<svg width="17" height="17" viewBox="0 0 17 17" fill="none" xmlns="http://www.w3.org/2000/svg">
<path d="M3.42361 7.31646C4.78361 9.97272 6.97 12.1456 9.6475 13.4972L11.7253 11.4276C11.985 11.1694 12.3581 11.0944 12.6839 11.1976C13.7417 11.5449 14.8797 11.7326 16.0556 11.7326C16.5797 11.7326 17 12.1503 17 12.6712V15.9564C17 16.4773 16.5797 16.895 16.0556 16.895C7.18722 16.895 0 9.75215 0 0.938609C0 0.417681 0.425 0 0.944444 0H4.25C4.77417 0 5.19444 0.417681 5.19444 0.938609C5.19444 2.10718 5.38333 3.2382 5.73278 4.28944C5.83667 4.61326 5.76111 4.98401 5.50139 5.24213L3.42361 7.31646Z" fill="white"/>
</svg>
