<svg width="33" height="32" viewBox="0 0 33 32" fill="none" xmlns="http://www.w3.org/2000/svg">
<path d="M2.37706 12.7246C-0.792353 15.8007 -0.792353 20.788 2.37706 23.8641C5.16939 26.5742 9.49023 26.8966 12.6463 24.8314L19.6593 31.6378C20.1567 32.1207 20.9634 32.1207 21.461 31.6378C21.9133 31.1988 21.9543 30.5119 21.5842 30.0278L21.461 29.8892L14.5123 23.1437C17.0063 20.0529 16.787 15.5706 13.8546 12.7246C10.6851 9.64846 5.54649 9.64846 2.37706 12.7246ZM16.5212 0C8.68598 0 2.12797 5.3072 0.455281 12.4197C0.687728 12.1332 0.940178 11.8576 1.21202 11.5938C2.08253 10.749 3.07651 10.097 4.1376 9.63787C5.69136 6.78748 8.26209 4.53801 11.3805 3.34335L11.2045 3.62174C10.3189 5.05067 9.60446 6.83804 9.10354 8.86547C9.92549 8.94752 10.7367 9.12854 11.5183 9.40997C12.5593 5.20822 14.5218 2.39866 16.5212 2.39866L16.7117 2.40714C18.7966 2.59223 20.8108 5.7936 21.7462 10.3962L13.512 10.395C14.0445 10.7385 14.55 11.1381 15.0196 11.5938C15.4076 11.9704 15.7564 12.3714 16.066 12.792L22.1181 12.7944C22.2301 13.8183 22.2904 14.8892 22.2904 15.9936C22.2904 17.6878 22.1486 19.3034 21.8955 20.791L17.5368 20.7912C17.4087 21.2481 17.2445 21.6977 17.0442 22.1362L16.8318 22.5707L16.6298 22.9375L16.8911 23.1886L21.3635 23.1891C21.0303 24.386 20.621 25.456 20.1581 26.3625L21.9793 28.1338C22.79 26.7618 23.449 25.0818 23.9219 23.1907L28.4077 23.1894C26.9415 25.466 24.8001 27.2911 22.2556 28.4007L22.6262 28.7586L22.8315 28.983C23.1946 29.455 23.3996 29.9811 23.4545 30.5064C29.0907 27.9669 33 22.4233 33 15.9936C33 7.16055 25.6222 0 16.5212 0ZM12.0529 14.4731C14.2272 16.5835 14.2272 20.0051 12.0529 22.1154C9.8785 24.2258 6.35313 24.2258 4.17876 22.1154C2.00436 20.0051 2.00436 16.5835 4.17876 14.4731C6.35313 12.3628 9.8785 12.3628 12.0529 14.4731ZM24.6055 12.7954L30.1374 12.7943L30.1504 12.8425C30.3977 13.8538 30.5286 14.9089 30.5286 15.9936C30.5286 17.6822 30.2114 19.2991 29.6314 20.7909L24.403 20.7923C24.6375 19.2743 24.7619 17.6614 24.7619 15.9936C24.7619 14.9001 24.7085 13.8305 24.6055 12.7954ZM21.66 3.34326L21.6978 3.3572C25.0711 4.66003 27.7996 7.19837 29.29 10.3964L24.2676 10.3955C23.7514 7.59319 22.8504 5.15356 21.66 3.34326Z" fill="#F54646"/>
</svg>
