<svg width="18" height="17" viewBox="0 0 18 17" fill="none" xmlns="http://www.w3.org/2000/svg">
<path fill-rule="evenodd" clip-rule="evenodd" d="M8.99906 0C4.30911 0 0.506348 3.9011 0.506348 8.71676C0.506348 12.5685 2.94042 15.8321 6.31476 16.9857C6.73939 17.0654 6.89484 16.796 6.89484 16.5645C6.89484 16.3558 6.88726 15.8093 6.88347 15.0807C4.52143 15.6082 4.02097 13.9119 4.02097 13.9119C3.63425 12.9063 3.07691 12.6368 3.07691 12.6368C2.30726 12.0942 3.13378 12.1055 3.13378 12.1055C3.98684 12.1663 4.43423 13.0049 4.43423 13.0049C5.19251 14.3369 6.42092 13.9536 6.90622 13.7297C6.98204 13.1681 7.20194 12.781 7.44459 12.5647C5.56027 12.3446 3.57737 11.597 3.57737 8.25758C3.57737 7.30507 3.90723 6.52713 4.44939 5.91996C4.36219 5.69985 4.07026 4.81186 4.5328 3.61269C4.5328 3.61269 5.24559 3.37741 6.8683 4.50448C7.54696 4.31094 8.27112 4.21607 8.99527 4.21228C9.71564 4.21607 10.4436 4.31094 11.1222 4.50448C12.745 3.37741 13.4539 3.61269 13.4539 3.61269C13.9165 4.81186 13.6246 5.69985 13.5374 5.91996C14.0795 6.53093 14.4094 7.30887 14.4094 8.25758C14.4094 11.6046 12.4227 12.3408 10.5308 12.5571C10.8341 12.8266 11.1071 13.3578 11.1071 14.1699C11.1071 15.335 11.0957 16.2761 11.0957 16.5607C11.0957 16.7922 11.2474 17.0654 11.6796 16.9781C15.0615 15.8283 17.4918 12.5647 17.4918 8.71676C17.4918 3.9011 13.689 0 8.99906 0Z" fill="black"/>
</svg>
