<svg width="42" height="42" viewBox="0 0 42 42" fill="none" xmlns="http://www.w3.org/2000/svg">
<circle cx="21" cy="21" r="21" fill="#160E2F"/>
<path d="M9.31702 17.4809H14.6748V33H9.31702V17.4809ZM12.0318 10C10.198 10 9 11.1588 9 12.6797C9 14.1693 10.163 15.3617 11.9617 15.3617H11.9958C13.8646 15.3617 15.0285 14.1692 15.0285 12.6797C14.9934 11.1588 13.8647 10 12.0318 10ZM27.8297 17.1163C24.9857 17.1163 23.7116 18.622 23.0008 19.6779V17.4809H17.6414C17.7124 18.9368 17.6414 33 17.6414 33H23.0008V24.333C23.0008 23.8688 23.0359 23.4064 23.1769 23.0738C23.5649 22.1472 24.4467 21.1876 25.9258 21.1876C27.8664 21.1876 28.6414 22.6114 28.6414 24.6967V32.9999H34V24.101C34 19.3343 31.357 17.1163 27.8297 17.1163Z" fill="white"/>
</svg>
