<svg width="99" height="68" viewBox="0 0 99 68" fill="none" xmlns="http://www.w3.org/2000/svg">
<g filter="url(#filter0_d_52_128)">
<path d="M54.9802 41.6282C54.4228 41.6395 53.9564 41.6509 53.5355 41.6509C52.6141 41.6736 51.8974 41.6849 50.8964 41.6509C51.0329 40.8003 51.34 39.0312 52.0226 35.3909C52.1591 34.6877 51.7837 34.0073 51.1239 33.7465C50.4641 33.4743 49.7247 33.7011 49.3265 34.2908C47.5064 37.0012 44.1847 41.9231 42.3646 44.4634C42.0347 44.917 42.0006 45.518 42.2622 46.017C42.5238 46.516 43.0358 46.8222 43.6045 46.8109C44.0823 46.8109 44.5146 46.7882 44.9355 46.7768C45.5384 46.7542 46.1186 46.7428 46.8011 46.7428C46.3802 47.7635 45.9366 48.9316 45.4815 50.1337C45.0948 51.1657 44.6852 52.2317 44.2416 53.3204C43.9686 54.0008 44.2188 54.738 44.8331 55.1235C45.0834 55.2823 45.3564 55.3503 45.6294 55.3503C46.0276 55.3503 46.4257 55.1802 46.7215 54.8627C50.1001 51.1657 52.4548 48.4326 56.1519 44.0437C56.5273 43.5901 56.607 42.9891 56.3567 42.4561C56.0951 41.9457 55.5718 41.6169 54.9802 41.6282ZM46.2437 52.8668C46.5281 52.141 46.7897 51.4378 47.0628 50.7461C47.6998 49.079 48.3027 47.4913 48.8487 46.2779C48.9625 46.017 48.9397 45.7222 48.7919 45.484C48.644 45.2459 48.3823 45.0984 48.0979 45.0871C47.5633 45.0644 47.0969 45.0644 46.6646 45.0644C45.9934 45.0644 45.4247 45.0757 44.8672 45.0984C44.5829 45.1098 44.2985 45.1098 43.9913 45.1211C45.6635 42.7509 48.3482 38.793 50.1456 36.128C49.8726 37.5909 49.645 38.8271 49.4744 39.8024C49.3379 40.5735 49.2355 41.1746 49.1786 41.5942C49.0535 42.3767 49.0194 42.6715 49.2696 43.0004C49.4175 43.1932 49.6564 43.3179 49.8953 43.3293C51.4765 43.42 52.3525 43.3973 53.5583 43.3633C53.8541 43.352 54.1612 43.352 54.5138 43.3406C51.3173 47.1511 49.1104 49.7141 46.2437 52.8668ZM89.3577 23.7214C93.0093 29.8113 94.9659 36.9899 95 44.4974C95 44.9623 94.6246 45.3479 94.1468 45.3479C93.6804 45.3479 93.2936 44.9737 93.2936 44.4974C93.2595 37.2961 91.3939 30.4123 87.8902 24.5832C87.0484 23.177 86.1156 21.7935 85.1259 20.4779C84.8415 20.1037 84.9211 19.5707 85.2965 19.2872C85.6719 19.0037 86.2066 19.083 86.491 19.4573C87.5148 20.8295 88.4703 22.2584 89.3577 23.7214ZM34.7429 3.68248C22.4571 7.45891 13.1176 16.2139 8.4536 28.3257C6.4856 33.4176 5.57554 38.8951 5.72343 44.5994C5.7348 45.0644 5.35941 45.4613 4.893 45.4727C4.88163 45.4727 4.88163 45.4727 4.87025 45.4727C4.41522 45.4727 4.02845 45.1098 4.01707 44.6448C3.85781 38.7137 4.81337 33.0207 6.861 27.7133C11.7184 15.1025 21.4447 5.99597 34.2423 2.04943C48.2003 -2.24866 63.9329 0.302977 76.3438 8.86515C76.7306 9.13732 76.833 9.65899 76.56 10.0446C76.287 10.4302 75.7637 10.5322 75.3769 10.26C63.3983 2.00407 48.2117 -0.468183 34.7429 3.68248ZM88.4135 9.16C88.6524 8.83112 88.6296 8.3775 88.3566 8.08264C88.0836 7.78779 87.6285 7.71974 87.2873 7.93522C81.4515 11.4848 75.0698 15.386 68.6539 19.2985C62.9774 22.7687 57.2781 26.2503 51.9202 29.5278C51.4879 29.4484 51.067 29.3803 50.6234 29.335C48.2572 29.0855 45.8797 29.437 43.5704 30.3556C37.8484 32.6578 33.8783 38.5549 33.9011 44.7128C33.9352 50.8595 37.9622 56.7226 43.6955 58.9793C45.4474 59.6711 47.3244 60 49.19 60C53.4332 60 57.6877 58.2989 60.6112 55.1802C63.3073 52.3224 64.7747 48.3759 64.5586 44.6561C64.5131 43.885 64.4107 43.1138 64.2628 42.3653C67.8121 37.5342 71.4978 32.4196 75.0698 27.4751C79.5063 21.3398 84.0793 15.0004 88.4135 9.16ZM59.3826 54.0122C57.5853 55.9287 55.0826 57.3236 52.3638 57.936C49.645 58.5484 46.7897 58.3556 44.3326 57.3917C41.8754 56.4277 39.6572 54.6359 38.0759 52.3451C36.4947 50.0429 35.6188 47.3325 35.6074 44.7128C35.596 42.0818 36.4492 39.3601 38.0077 37.0579C39.5662 34.7444 41.7731 32.9299 44.2075 31.9433C46.7215 30.934 49.3038 30.7072 51.7837 31.2402C51.8519 31.2629 51.9088 31.2742 51.9771 31.2855C53.3763 31.6144 54.73 32.1815 56.0154 32.9866C59.3372 35.0847 61.6692 38.4755 62.5223 42.3427C62.5223 42.354 62.5224 42.3653 62.5337 42.3767C62.7044 43.1478 62.8181 43.9417 62.8636 44.7469C63.057 48.0243 61.7602 51.4832 59.3826 54.0122ZM63.7054 40.2446C62.4996 36.661 60.1221 33.565 56.9255 31.5464C56.0382 30.9794 55.1054 30.5257 54.1498 30.1628C59.121 27.1349 64.3425 23.9368 69.5525 20.7501C74.6261 17.6541 79.6883 14.5581 84.4661 11.6436C80.9169 16.4747 77.2539 21.544 73.7047 26.4771C70.3943 31.0361 67.0044 35.7424 63.7054 40.2446ZM48.826 4.56705L48.8829 10.8384C48.8829 11.3034 48.5075 11.689 48.0411 11.7003C48.0411 11.7003 48.0411 11.7003 48.0297 11.7003C47.5633 11.7003 47.1765 11.3261 47.1765 10.8611L47.1196 4.58973C47.1196 4.12477 47.495 3.73919 47.9614 3.72785C47.9614 3.72785 47.9614 3.72785 47.9728 3.72785C48.4392 3.72785 48.826 4.10209 48.826 4.56705ZM25.2669 20.9202C25.6082 21.2491 25.6082 21.7821 25.2783 22.1223C25.1076 22.2924 24.8915 22.3718 24.664 22.3718C24.4478 22.3718 24.2317 22.2924 24.0611 22.1337L19.5677 17.7449C19.2264 17.416 19.2264 16.883 19.5563 16.5427C19.8862 16.2025 20.4208 16.2025 20.7621 16.5314L25.2669 20.9202ZM16.5759 45.5407C16.5759 46.0057 16.2005 46.3913 15.7341 46.4026L9.44328 46.4593C9.44328 46.4593 9.44328 46.4593 9.43191 46.4593C8.9655 46.4593 8.57873 46.0851 8.57873 45.6201C8.57873 45.1551 8.95413 44.7696 9.42053 44.7582L15.7113 44.7015C15.7113 44.7015 15.7113 44.7015 15.7227 44.7015C16.1891 44.7015 16.5759 45.0757 16.5759 45.5407ZM90.1995 45.5407C90.1995 46.0057 89.8241 46.3913 89.3577 46.4026L83.0669 46.4593C83.0669 46.4593 83.0669 46.4593 83.0555 46.4593C82.5891 46.4593 82.2023 46.0851 82.2023 45.6201C82.2023 45.1551 82.5777 44.7696 83.0441 44.7582L89.3349 44.7015C89.3349 44.7015 89.3349 44.7015 89.3463 44.7015C89.8127 44.7015 90.1881 45.0757 90.1995 45.5407Z" fill="#483875"/>
</g>
<defs>
<filter id="filter0_d_52_128" x="0" y="0" width="99" height="68" filterUnits="userSpaceOnUse" color-interpolation-filters="sRGB">
<feFlood flood-opacity="0" result="BackgroundImageFix"/>
<feColorMatrix in="SourceAlpha" type="matrix" values="0 0 0 0 0 0 0 0 0 0 0 0 0 0 0 0 0 0 127 0" result="hardAlpha"/>
<feOffset dy="4"/>
<feGaussianBlur stdDeviation="2"/>
<feComposite in2="hardAlpha" operator="out"/>
<feColorMatrix type="matrix" values="0 0 0 0 0 0 0 0 0 0 0 0 0 0 0 0 0 0 0.25 0"/>
<feBlend mode="normal" in2="BackgroundImageFix" result="effect1_dropShadow_52_128"/>
<feBlend mode="normal" in="SourceGraphic" in2="effect1_dropShadow_52_128" result="shape"/>
</filter>
</defs>
</svg>
