<svg width="72" height="116" viewBox="0 0 72 116" fill="none" xmlns="http://www.w3.org/2000/svg">
<path d="M29.3606 74.2926C29.3606 74.2926 28.7483 79.5716 34.9725 86.1699C35.142 86.3481 35.3456 86.4903 35.5713 86.588C35.7969 86.6857 36.0399 86.737 36.2858 86.7387C36.5317 86.7404 36.7754 86.6925 37.0024 86.5979C37.2294 86.5034 37.435 86.364 37.6069 86.1882C43.6942 79.8697 43.2006 74.2929 43.2006 74.2929C43.1531 72.4725 42.4088 70.7398 41.1212 69.4522C39.8335 68.1646 38.1008 67.4202 36.2805 67.3727C32.4588 67.3725 29.7191 70.2979 29.3606 74.2926Z" fill="#F54646"/>
<path d="M45.3373 62.882C47.3695 63.1605 49.2831 64.0025 50.8614 65.3125C53.2516 67.4397 55.3179 69.9051 56.9946 72.6303C57.1353 72.8542 57.3374 73.033 57.5768 73.1454C57.8163 73.2578 58.0829 73.2991 58.3451 73.2642C58.6073 73.2294 58.8539 73.1199 59.0557 72.9489C59.2575 72.7779 59.4058 72.5525 59.4832 72.2996C61.9579 64.3125 60.9507 54.6668 51.2468 50.4745C50.233 55.0014 48.2132 59.242 45.3373 62.882Z" fill="#F54646"/>
<path d="M21.6934 65.3116C23.2737 64.0002 25.1901 63.1582 27.2248 62.8813C24.3415 59.2444 22.3198 55.0015 21.3116 50.4712C11.6031 54.6624 10.5983 64.3107 13.0705 72.301C13.1471 72.552 13.2943 72.7755 13.4946 72.945C13.6949 73.1144 13.9398 73.2226 14.1999 73.2565C14.4627 73.2939 14.7307 73.2547 14.9717 73.1437C15.2128 73.0326 15.4167 72.8544 15.559 72.6303C17.2366 69.9051 19.3032 67.4395 21.6934 65.3116Z" fill="#F54646"/>
<path d="M37.747 17.3361C37.3222 17.0251 36.8093 16.8574 36.2828 16.8575C35.7562 16.8575 35.2434 17.0252 34.8186 17.3363C32.3564 19.1542 30.172 21.3207 28.3339 23.7678C30.6071 25.5331 33.4036 26.4908 36.2818 26.4899C39.1599 26.4889 41.9558 25.5293 44.2278 23.7625C42.3905 21.3175 40.2074 19.1527 37.747 17.3361Z" fill="#F54646"/>
<path d="M26.8652 25.9054C24.3883 29.8614 22.9939 34.3985 22.8215 39.0628C22.2334 54.3493 29.713 61.7718 29.713 61.7718L42.8523 61.7718C42.8523 61.7718 50.3325 54.3489 49.7442 39.0632C49.5717 34.3969 48.1761 29.8579 45.6972 25.9008C42.9911 27.9619 39.6836 29.0784 36.282 29.0793C32.8803 29.0801 29.5723 27.9651 26.8652 25.9054ZM40.1117 45.2048C39.3533 45.9632 38.387 46.4797 37.3351 46.6889C36.2832 46.8981 35.1928 46.7908 34.2019 46.3803C33.211 45.9699 32.3641 45.2748 31.7682 44.383C31.1723 43.4912 30.8543 42.4428 30.8543 41.3702C30.8543 40.2977 31.1723 39.2492 31.7682 38.3575C32.3641 37.4657 33.211 36.7706 34.2019 36.3602C35.1928 35.9497 36.2832 35.8423 37.3351 36.0516C38.387 36.2608 39.3533 36.7773 40.1117 37.5357C40.6153 38.0392 41.0147 38.6371 41.2872 39.295C41.5598 39.9529 41.7 40.6581 41.7 41.3702C41.7 42.0824 41.5598 42.7875 41.2872 43.4455C41.0147 44.1034 40.6153 44.7012 40.1117 45.2048Z" fill="#F54646"/>
</svg>
