<svg width="40" height="40" viewBox="0 0 40 40" fill="none" xmlns="http://www.w3.org/2000/svg">
<circle cx="20" cy="20" r="18.5" fill="white" stroke="#483875" stroke-width="3"/>
<path d="M11.1728 15.0041C11.3262 15.0033 11.4784 15.0285 11.6204 15.0782C11.7625 15.128 11.8917 15.2012 12.0007 15.2938L20.501 22.5866L29.0013 15.2938C29.2209 15.1057 29.5187 15 29.8292 15C30.1397 15 30.4375 15.1057 30.6571 15.2938C30.8766 15.4819 31 15.7371 31 16.0031C31 16.2691 30.8766 16.5243 30.6571 16.7124L21.3289 24.7045C21.2205 24.7981 21.0915 24.8724 20.9494 24.9232C20.8073 24.9739 20.6549 25 20.501 25C20.3471 25 20.1947 24.9739 20.0526 24.9232C19.9105 24.8724 19.7815 24.7981 19.6731 24.7045L10.3449 16.7124C10.2356 16.6195 10.1489 16.509 10.0897 16.3873C10.0305 16.2656 10 16.135 10 16.0031C10 15.8712 10.0305 15.7406 10.0897 15.6189C10.1489 15.4972 10.2356 15.3867 10.3449 15.2938C10.4539 15.2012 10.5831 15.128 10.7251 15.0782C10.8672 15.0285 11.0193 15.0033 11.1728 15.0041Z" fill="#483875"/>
</svg>
