<svg width="42" height="42" viewBox="0 0 42 42" fill="none" xmlns="http://www.w3.org/2000/svg">
<circle cx="21" cy="21" r="21" fill="#160E2F"/>
<path d="M20.6843 14.0864C17.1041 14.0864 14.1376 17.0018 14.1376 20.6332C14.1376 24.2646 17.0529 27.1799 20.6843 27.1799C24.3157 27.1799 27.231 24.2134 27.231 20.6332C27.231 17.0529 24.2646 14.0864 20.6843 14.0864ZM20.6843 24.8272C18.3827 24.8272 16.4903 22.9347 16.4903 20.6332C16.4903 18.3316 18.3827 16.4392 20.6843 16.4392C22.9859 16.4392 24.8783 18.3316 24.8783 20.6332C24.8783 22.9347 22.9859 24.8272 20.6843 24.8272Z" fill="white"/>
<path d="M27.4868 15.4162C28.3059 15.4162 28.97 14.7521 28.97 13.933C28.97 13.1138 28.3059 12.4497 27.4868 12.4497C26.6676 12.4497 26.0035 13.1138 26.0035 13.933C26.0035 14.7521 26.6676 15.4162 27.4868 15.4162Z" fill="white"/>
<path d="M31.3228 10.097C29.9929 8.71605 28.1005 8 25.9524 8H15.4162C10.9665 8 8 10.9665 8 15.4162V25.9012C8 28.1005 8.71605 29.9929 10.1481 31.3739C11.5291 32.7037 13.3704 33.3686 15.4674 33.3686H25.9012C28.1005 33.3686 29.9418 32.6526 31.2716 31.3739C32.6526 30.0441 33.3686 28.1517 33.3686 25.9524V15.4162C33.3686 13.2681 32.6526 11.4268 31.3228 10.097ZM31.1182 25.9524C31.1182 27.5379 30.5556 28.8166 29.6349 29.6861C28.7143 30.5556 27.4356 31.0159 25.9012 31.0159H15.4674C13.933 31.0159 12.6543 30.5556 11.7337 29.6861C10.8131 28.7654 10.3527 27.4868 10.3527 25.9012V15.4162C10.3527 13.8818 10.8131 12.6032 11.7337 11.6825C12.6032 10.8131 13.933 10.3527 15.4674 10.3527H26.0035C27.5379 10.3527 28.8166 10.8131 29.7372 11.7337C30.6067 12.6543 31.1182 13.933 31.1182 15.4162V25.9524Z" fill="white"/>
</svg>
