<svg width="31" height="31" viewBox="0 0 31 31" fill="none" xmlns="http://www.w3.org/2000/svg">
<path d="M0 15.5C0 12.4344 0.909059 9.43763 2.61222 6.88867C4.31538 4.33971 6.73615 2.35303 9.56841 1.17987C12.4007 0.00671606 15.5172 -0.300236 18.5239 0.297835C21.5306 0.895906 24.2924 2.37214 26.4602 4.53985C28.6279 6.70756 30.1041 9.4694 30.7022 12.4761C31.3002 15.4828 30.9933 18.5993 29.8201 21.4316C28.647 24.2639 26.6603 26.6846 24.1113 28.3878C21.5624 30.0909 18.5656 31 15.5 31C11.3891 31 7.44666 29.367 4.53984 26.4602C1.63303 23.5533 0 19.6109 0 15.5ZM28.9333 15.5C28.9333 12.8431 28.1455 10.2459 26.6694 8.03685C25.1933 5.82775 23.0953 4.10596 20.6407 3.08922C18.1861 2.07249 15.4851 1.80646 12.8793 2.32479C10.2735 2.84312 7.87988 4.12252 6.0012 6.0012C4.12251 7.87989 2.84311 10.2735 2.32478 12.8793C1.80646 15.4851 2.07248 18.1861 3.08922 20.6407C4.10596 23.0953 5.82774 25.1933 8.03684 26.6694C10.2459 28.1455 12.8431 28.9333 15.5 28.9333C19.0627 28.9333 22.4796 27.518 24.9988 24.9988C27.518 22.4796 28.9333 19.0627 28.9333 15.5Z" fill="black"/>
<path d="M11.501 21.276L17.267 15.4996L11.501 9.72331C11.3085 9.5297 11.2005 9.2678 11.2005 8.99481C11.2005 8.72181 11.3085 8.45991 11.501 8.26631C11.6946 8.07385 11.9565 7.96582 12.2295 7.96582C12.5025 7.96582 12.7644 8.07385 12.958 8.26631L19.53 14.8383C19.7041 15.0144 19.8018 15.252 19.8018 15.4996C19.8018 15.7473 19.7041 15.9849 19.53 16.161L12.958 22.733C12.7644 22.9254 12.5025 23.0335 12.2295 23.0335C11.9565 23.0335 11.6946 22.9254 11.501 22.733C11.3085 22.5394 11.2005 22.2775 11.2005 22.0045C11.2005 21.7315 11.3085 21.4696 11.501 21.276Z" fill="black"/>
</svg>
