<svg width="132" height="43" viewBox="0 0 132 43" fill="none" xmlns="http://www.w3.org/2000/svg">
<path d="M56.4882 22.6285C56.4882 28.815 51.5977 33.3737 45.5959 33.3737C39.5941 33.3737 34.7036 28.815 34.7036 22.6285C34.7036 16.3984 39.5941 11.8833 45.5959 11.8833C51.5977 11.8833 56.4882 16.3984 56.4882 22.6285ZM51.7201 22.6285C51.7201 18.7626 48.8856 16.1174 45.5959 16.1174C42.3062 16.1174 39.4717 18.7626 39.4717 22.6285C39.4717 26.4557 42.3062 29.1396 45.5959 29.1396C48.8856 29.1396 51.7201 26.4509 51.7201 22.6285Z" fill="#EA4335"/>
<path d="M79.9862 22.6285C79.9862 28.815 75.0957 33.3737 69.0939 33.3737C63.0921 33.3737 58.2016 28.815 58.2016 22.6285C58.2016 16.4033 63.0921 11.8833 69.0939 11.8833C75.0957 11.8833 79.9862 16.3984 79.9862 22.6285ZM75.2181 22.6285C75.2181 18.7626 72.3836 16.1174 69.0939 16.1174C65.8042 16.1174 62.9697 18.7626 62.9697 22.6285C62.9697 26.4557 65.8042 29.1396 69.0939 29.1396C72.3836 29.1396 75.2181 26.4509 75.2181 22.6285Z" fill="#FBBC05"/>
<path d="M102.505 12.5325V31.8235C102.505 39.7589 97.7761 42.9999 92.1856 42.9999C86.923 42.9999 83.7557 39.5166 82.5612 36.668L86.7125 34.9579C87.4517 36.7068 89.263 38.7706 92.1807 38.7706C95.7592 38.7706 97.9769 36.5857 97.9769 32.4727V30.9272H97.8104C96.7432 32.2304 94.6871 33.3689 92.0926 33.3689C86.6635 33.3689 81.6898 28.6891 81.6898 22.6673C81.6898 16.6019 86.6635 11.8833 92.0926 11.8833C94.6822 11.8833 96.7383 13.0218 97.8104 14.2862H97.9769V12.5373H102.505V12.5325ZM98.3146 22.6673C98.3146 18.8837 95.7641 16.1174 92.5185 16.1174C89.2288 16.1174 86.4726 18.8837 86.4726 22.6673C86.4726 26.4121 89.2288 29.1396 92.5185 29.1396C95.7641 29.1396 98.3146 26.4121 98.3146 22.6673Z" fill="#4285F4"/>
<path d="M109.971 1.22559V32.7152H105.32V1.22559H109.971Z" fill="#34A853"/>
<path d="M128.093 26.1655L131.794 28.6071C130.6 30.356 127.721 33.3693 122.748 33.3693C116.579 33.3693 111.973 28.6507 111.973 22.6241C111.973 16.2342 116.619 11.8789 122.214 11.8789C127.849 11.8789 130.605 16.3165 131.506 18.7146L132 19.9354L117.485 25.8845C118.596 28.0403 120.324 29.14 122.748 29.14C125.176 29.14 126.86 27.958 128.093 26.1655ZM116.702 22.2995L126.405 18.3125C125.871 16.9705 124.265 16.0355 122.376 16.0355C119.952 16.0355 116.579 18.1526 116.702 22.2995Z" fill="#EA4335"/>
<path d="M17.0997 19.8336V15.2749H32.6231C32.7748 16.0694 32.8531 17.0092 32.8531 18.0266C32.8531 21.4468 31.9083 25.6761 28.8634 28.6894C25.9016 31.7415 22.1175 33.3693 17.1046 33.3693C7.81308 33.3693 0 25.8796 0 16.6846C0 7.48968 7.81308 0 17.1046 0C22.2448 0 25.9065 1.99596 28.6578 4.59748L25.4072 7.81426C23.4344 5.98302 20.7615 4.55872 17.0997 4.55872C10.3146 4.55872 5.00801 9.97009 5.00801 16.6846C5.00801 23.3992 10.3146 28.8106 17.0997 28.8106C21.5007 28.8106 24.0071 27.0617 25.6128 25.4727C26.915 24.184 27.7717 22.3431 28.1095 19.8288L17.0997 19.8336Z" fill="#4285F4"/>
</svg>
