<svg width="42" height="42" viewBox="0 0 42 42" fill="none" xmlns="http://www.w3.org/2000/svg">
<circle cx="21" cy="21" r="21" fill="#160E2F"/>
<path d="M34 13.4859C33.0442 13.9081 32.0155 14.193 30.9362 14.3204C32.0382 13.6647 32.8832 12.6261 33.2817 11.3871C32.2509 11.9951 31.1099 12.4362 29.8944 12.6744C28.9217 11.6442 27.5352 11 26.001 11C23.0554 11 20.6672 13.3736 20.6672 16.3017C20.6672 16.7166 20.7142 17.121 20.8055 17.5097C16.3722 17.2884 12.4413 15.1781 9.81028 11.9704C9.35112 12.7531 9.08828 13.6637 9.08828 14.6362C9.08828 16.4753 10.0298 18.0983 11.4612 19.0488C10.5872 19.021 9.76437 18.7823 9.045 18.3852C9.04448 18.4072 9.04448 18.4298 9.04448 18.4523C9.04448 21.0206 10.8833 23.1628 13.3237 23.6507C12.8762 23.7713 12.4048 23.8364 11.9182 23.8364C11.5741 23.8364 11.24 23.8033 10.9144 23.7409C11.5937 25.847 13.5633 27.3803 15.8972 27.4227C14.0716 28.8448 11.772 29.6925 9.27248 29.6925C8.84234 29.6925 8.41747 29.6673 8 29.618C10.3613 31.1229 13.1648 32 16.1769 32C25.9888 32 31.3537 23.9219 31.3537 16.9159C31.3537 16.6862 31.349 16.4569 31.3389 16.2293C32.3808 15.4834 33.2854 14.5491 34 13.4859Z" fill="white"/>
</svg>
