<svg width="102" height="64" viewBox="0 0 102 64" fill="none" xmlns="http://www.w3.org/2000/svg">
<path fill-rule="evenodd" clip-rule="evenodd" d="M45.9209 53.0271H40.665V53.5851C42.3089 53.5851 42.573 53.9372 42.573 56.0223V59.7805C42.573 61.8649 42.3089 62.2469 40.665 62.2469C39.4028 62.0709 38.5512 61.3951 37.3766 60.1035L36.026 58.6356C37.8464 58.3121 38.8155 57.1672 38.8155 55.8749C38.8155 54.2607 37.4356 53.0271 34.8514 53.0271H29.6841V53.5851C31.3281 53.5851 31.5921 53.9372 31.5921 56.0223V59.7805C31.5921 61.8649 31.3281 62.2469 29.6841 62.2469V62.8043H35.527V62.2469C33.8826 62.2469 33.6185 61.8649 33.6185 59.7805V58.7234H34.1174L37.3766 62.8041H45.9209C50.1198 62.8041 51.94 60.573 51.94 57.9011C51.94 55.2295 50.1198 53.0271 45.9209 53.0271ZM33.6185 57.813V53.9086H34.8224C36.1433 53.9086 36.7308 54.8185 36.7308 55.8749C36.7308 56.9032 36.1433 57.813 34.8224 57.813H33.6185ZM46.009 61.8942H45.8032C44.7463 61.8942 44.5996 61.6301 44.5996 60.2795V53.9086C44.5996 53.9086 45.8915 53.9086 46.009 53.9086C49.0625 53.9086 49.6203 56.1396 49.6203 57.872C49.6203 59.6627 49.0625 61.8942 46.009 61.8942ZM19.3203 50.0908H13.8V50.6783C15.6794 50.6783 15.9435 51.1774 15.356 52.9094L13.3303 58.8998L10.4237 50.091H9.86544L6.89991 58.8998L4.93294 52.9094C4.31616 51.0894 4.78595 50.6783 6.51836 50.6783V50.0908H0V50.6783C1.70314 50.6783 2.17293 51.1184 2.87774 53.2619L6.13658 63.3036H6.51836L9.57191 54.113L12.5669 63.3036H12.9483L16.2958 53.2619C17.0301 51.1184 17.4704 50.6783 19.3201 50.6783L19.3203 50.0908ZM23.3128 52.6451C20.0832 52.6451 17.4405 55.0238 17.4405 57.9011C17.4405 60.8081 20.0832 63.1861 23.3128 63.1861C26.5426 63.1861 29.1853 60.8081 29.1853 57.9011C29.1851 55.0238 26.5426 52.6451 23.3128 52.6451ZM23.3128 62.2469C20.6115 62.2469 19.6719 59.8394 19.6719 57.9011C19.6719 55.9926 20.6115 53.5556 23.3128 53.5556C26.0435 53.5556 26.9829 55.9924 26.9829 57.9011C26.9829 59.8394 26.0435 62.2469 23.3128 62.2469Z" fill="#1D82AA"/>
<path fill-rule="evenodd" clip-rule="evenodd" d="M58.546 50.0908H52.4681V50.6783C54.4356 50.6783 54.7876 51.1477 54.7876 54.0844V58.7819C54.7876 61.7182 54.4356 62.2172 52.4681 62.2172V62.8041H59.1918V62.2172C57.2244 62.2172 56.8721 61.7182 56.8721 58.7819V57.3437H58.546C61.5703 57.3437 63.2437 55.7583 63.2437 53.7323C63.2439 51.6472 61.5703 50.0908 58.546 50.0908ZM58.546 56.2564H56.8721V51.1477H58.546C60.1904 51.1477 60.9535 52.3227 60.9535 53.7321C60.9537 55.1116 60.1904 56.2564 58.546 56.2564ZM83.2681 60.5733C83.0041 61.5421 82.6806 61.8942 80.5959 61.8942H80.1849C78.658 61.8942 78.3939 61.5421 78.3939 59.4574V58.1068C80.6839 58.1068 80.8604 58.3121 80.8604 59.8392H81.4184V55.4643H80.8604C80.8604 56.9912 80.6839 57.1965 78.3939 57.1965V53.9086H80.0086C82.0933 53.9086 82.4163 54.2606 82.6804 55.2295L82.8274 55.7869H83.2972L83.0919 53.0273H74.4591V53.5853C76.1037 53.5853 76.3675 53.9374 76.3675 56.0225V59.7807C76.3675 61.6878 76.1429 62.168 74.8469 62.2367C73.6148 62.0481 72.7688 61.3761 71.6113 60.1037L70.2607 58.6358C72.0811 58.3123 73.0506 57.1674 73.0506 55.8751C73.0506 54.2609 71.6707 53.0273 69.0865 53.0273H63.9186V53.5853C65.5632 53.5853 65.827 53.9374 65.827 56.0225V59.7807C65.827 61.8651 65.5632 62.2471 63.9186 62.2471V62.8045H69.7614V62.2471C68.1174 62.2471 67.8534 61.8651 67.8534 59.7807V58.7236H68.3524L71.6111 62.8043H83.6787L83.855 60.0447H83.4142L83.2681 60.5733ZM67.8538 57.813V53.9086H69.0577C70.3788 53.9086 70.9661 54.8185 70.9661 55.8749C70.9661 56.9032 70.3788 57.813 69.0577 57.813H67.8538ZM90.9899 57.402L89.3752 56.6092C87.9656 55.9627 87.3488 55.5523 87.3488 54.7888C87.3488 54.0547 88.1124 53.5849 88.9347 53.5849C90.4908 53.5849 91.2539 54.7298 91.4597 56.1101H92.0762V52.6451H91.5184C91.43 52.9974 91.2834 53.3208 91.1364 53.4383C90.6369 53.0271 89.8155 52.6748 88.8467 52.6748C87.0256 52.6748 85.7047 53.8787 85.7047 55.2883C85.7047 56.5799 86.5855 57.5483 87.7601 58.1068L89.4337 58.8996C90.6372 59.4574 91.3129 60.0445 91.3129 60.8081C91.3129 61.6889 90.5491 62.217 89.61 62.217C87.8776 62.217 86.5267 61.0721 86.2917 59.1344H85.7049V63.1858H86.2629C86.3217 62.7748 86.5857 62.3347 86.7327 62.1877C87.1728 62.5695 88.2004 63.1858 89.3752 63.1858C91.342 63.1858 92.9573 61.894 92.9573 60.0443C92.9573 59.1637 92.3993 58.0771 90.9899 57.402ZM100.033 57.402L98.4184 56.6092C97.0085 55.9627 96.392 55.5523 96.392 54.7888C96.392 54.0547 97.1555 53.5849 97.9776 53.5849C99.5335 53.5849 100.297 54.7298 100.502 56.1101H101.119V52.6451H100.561C100.473 52.9974 100.326 53.3208 100.18 53.4383C99.6801 53.0271 98.8582 52.6748 97.8894 52.6748C96.0689 52.6748 94.7473 53.8787 94.7473 55.2883C94.7473 56.5799 95.6282 57.5483 96.8028 58.1068L98.4767 58.8996C99.6803 59.4574 100.356 60.0445 100.356 60.8081C100.356 61.6889 99.5925 62.217 98.6527 62.217C96.9203 62.217 95.5701 61.0721 95.3351 59.1344H94.7476V63.1858H95.306C95.3646 62.7748 95.6284 62.3347 95.7754 62.1877C96.2155 62.5695 97.2438 63.1858 98.4184 63.1858C100.385 63.1858 102 61.894 102 60.0443C102 59.1637 101.442 58.0771 100.033 57.402Z" fill="#494442"/>
<path fill-rule="evenodd" clip-rule="evenodd" d="M31.9296 22.1124C31.9296 29.6209 36.2932 36.11 42.6211 39.1853L33.5722 14.3922C32.52 16.7514 31.9296 19.3622 31.9296 22.1124ZM63.7055 21.1551C63.7055 18.8108 62.8631 17.1873 62.141 15.9235C61.1796 14.361 60.278 13.0374 60.278 11.475C60.278 9.73153 61.6007 8.10776 63.4634 8.10776C63.5477 8.10776 63.6273 8.11863 63.7093 8.12306C60.3343 5.03094 55.8381 3.1429 50.8994 3.1429C44.2722 3.1429 38.442 6.54341 35.0497 11.693C35.4953 11.7067 35.9148 11.716 36.2708 11.716C38.2546 11.716 41.3264 11.4748 41.3264 11.4748C42.3489 11.4147 42.4695 12.9168 41.4479 13.0374C41.4479 13.0374 40.4198 13.1584 39.2769 13.2183L46.1848 33.7664L50.3365 21.3159L47.3807 13.2185C46.3595 13.1584 45.3913 13.0376 45.3913 13.0376C44.3693 12.9777 44.489 11.4149 45.5115 11.475C45.5115 11.475 48.6438 11.7162 50.5079 11.7162C52.4915 11.7162 55.5634 11.475 55.5634 11.475C56.5866 11.4149 56.707 12.917 55.6851 13.0376C55.6851 13.0376 54.6553 13.1587 53.514 13.2185L60.3693 33.6103L62.2613 27.2879C63.0812 24.6634 63.7055 22.7791 63.7055 21.1551ZM51.2326 23.7719L45.5408 40.3109C47.2401 40.8104 49.0373 41.0833 50.8994 41.0833C53.1082 41.0833 55.2271 40.7016 57.1987 40.0081C57.1479 39.9269 57.1016 39.8409 57.0637 39.7469L51.2326 23.7719ZM67.5448 13.0117C67.6264 13.616 67.6723 14.2641 67.6723 14.9625C67.6723 16.8869 67.3127 19.0507 66.2301 21.7568L60.4356 38.5096C66.0753 35.2208 69.8687 29.1104 69.8687 22.1124C69.8687 18.8146 69.0265 15.7131 67.5448 13.0117ZM50.8994 0C38.7065 0 28.7865 9.91976 28.7865 22.1122C28.7865 34.3067 38.7065 44.2256 50.8994 44.2256C63.0916 44.2256 73.0132 34.3067 73.0132 22.1122C73.0132 9.91998 63.0916 0 50.8994 0ZM50.8994 43.2121C39.2658 43.2121 29.8004 33.7471 29.8004 22.1124C29.8004 10.4787 39.2656 1.01386 50.8994 1.01386C62.5327 1.01386 71.9973 10.4787 71.9973 22.1124C71.9973 33.7469 62.5327 43.2121 50.8994 43.2121Z" fill="#494442"/>
</svg>
