<svg width="25" height="25" viewBox="0 0 25 25" fill="none" xmlns="http://www.w3.org/2000/svg">
<path d="M12.5 0C5.59642 0 0 5.56184 0 12.4228C0 19.2837 5.59642 24.8455 12.5 24.8455C19.4036 24.8455 25 19.2837 25 12.4228C25 5.56184 19.4036 0 12.5 0ZM12.5 22.4411C6.92883 22.4411 2.41935 17.9604 2.41935 12.4228C2.41935 6.88607 6.92797 2.40441 12.5 2.40441C18.0712 2.40441 22.5806 6.88517 22.5806 12.4228C22.5806 17.9595 18.072 22.4411 12.5 22.4411ZM17.9108 17.3786C17.4263 17.8651 15.616 19.4522 12.6656 19.4522C8.51089 19.4522 5.58478 16.3754 5.58478 12.3609C5.58478 8.39603 8.62283 5.37805 12.6292 5.37805C15.4282 5.37805 17.1019 6.7115 17.5482 7.1202C17.6531 7.21605 17.7204 7.34572 17.7383 7.48621C17.7562 7.6267 17.7234 7.76893 17.6458 7.8877L16.7307 9.29593C16.5371 9.59398 16.1276 9.6607 15.8487 9.44225C15.4155 9.10283 14.2452 8.31328 12.7385 8.31328C10.3038 8.31328 8.81124 10.083 8.81124 12.3247C8.81124 14.408 10.1665 16.517 12.7567 16.517C14.4027 16.517 15.6217 15.5633 16.0695 15.1533C16.3351 14.91 16.7547 14.9509 16.9676 15.2403L17.9689 16.6013C18.0543 16.7164 18.0953 16.8581 18.0847 17.0007C18.074 17.1432 18.0124 17.2773 17.9108 17.3786Z" fill="black"/>
</svg>
