<svg width="72" height="72" viewBox="0 0 72 72" fill="none" xmlns="http://www.w3.org/2000/svg">
<path d="M70 2H2V24.6667H70V2Z" stroke="#F54646" stroke-width="4" stroke-linejoin="round"/>
<path d="M2 47.3334V24.6667H70V42.8001" stroke="#F54646" stroke-width="4" stroke-linejoin="round"/>
<path d="M40.5333 69.9999H2V47.3333H36" stroke="#F54646" stroke-width="4" stroke-linejoin="round"/>
<path d="M22.4 13.3333H8.79999" stroke="#F54646" stroke-width="4" stroke-linejoin="round"/>
<path d="M11.0667 36H51.8667" stroke="#F54646" stroke-width="4" stroke-linejoin="round"/>
<path d="M56.4 36H60.9333" stroke="#F54646" stroke-width="4" stroke-linejoin="round"/>
<path d="M11.0667 58.6667H15.6" stroke="#F54646" stroke-width="4" stroke-linejoin="round"/>
<path d="M20.1333 58.6667H24.6667" stroke="#F54646" stroke-width="4" stroke-linejoin="round"/>
<path d="M29.2 58.6667H33.7333" stroke="#F54646" stroke-width="4" stroke-linejoin="round"/>
<path d="M26.9333 13.3333H31.4667" stroke="#F54646" stroke-width="4" stroke-linejoin="round"/>
<path d="M36 13.3333H40.5333" stroke="#F54646" stroke-width="4" stroke-linejoin="round"/>
<path d="M45.0667 13.3333H49.6" stroke="#F54646" stroke-width="4" stroke-linejoin="round"/>
<path d="M54.1333 13.3333H58.6667" stroke="#F54646" stroke-width="4" stroke-linejoin="round"/>
<path d="M56.4 69.9999C62.6592 69.9999 67.7333 64.9258 67.7333 58.6666C67.7333 52.4074 62.6592 47.3333 56.4 47.3333C50.1408 47.3333 45.0667 52.4074 45.0667 58.6666C45.0667 64.9258 50.1408 69.9999 56.4 69.9999Z" stroke="#F54646" stroke-width="4" stroke-linejoin="round"/>
<path d="M60.9333 54.4112L55.8087 66.6985L55.3782 59.2785L51.8667 60.6182L52.6551 51.8667H56.9913L56.2029 55.4681L60.9333 54.4112Z" fill="#F54646"/>
</svg>
