<svg width="207" height="43" viewBox="0 0 207 43" fill="none" xmlns="http://www.w3.org/2000/svg">
<path d="M7.51747 21.6952L6.7149 20.8684C4.22658 18.3005 3.4564 14.6317 4.39861 11.3789C1.91101 10.7988 0.0532227 8.5035 0.0532227 5.76028C0.0539424 2.58029 2.55234 0.000488281 5.63377 0.000488281C8.40785 0.00197391 10.709 2.09077 11.1409 4.8273C14.1525 4.09935 17.4477 4.94616 19.7957 7.36922L20.116 7.69977L15.9966 11.9479L15.6777 11.6174C14.3418 10.2395 12.1752 10.2395 10.8371 11.6189C9.49617 13.0027 9.49905 15.246 10.8299 16.6195L11.6354 17.4492L15.7548 21.6959L20.1117 26.1892L15.9966 30.4388L11.6354 25.9441L7.51747 21.6952Z" fill="#7AC143"/>
<path d="M12.1241 16.9459L16.4846 12.4496L20.604 8.20291L21.4073 7.37616C23.8855 4.81864 27.419 4.01343 30.5587 4.96498C30.9338 2.16085 33.2666 0 36.0875 0C39.1696 0 41.6694 2.57831 41.6687 5.75979C41.6687 8.68277 39.5576 11.0992 36.8231 11.4706C37.7221 14.6988 36.939 18.3186 34.4758 20.8612L34.1555 21.1933L30.0398 16.9421L30.3572 16.6131C31.6946 15.2337 31.6946 12.9963 30.3586 11.6176C29.0263 10.2434 26.8648 10.2412 25.5231 11.6251L24.7198 12.4533L20.6004 16.7015L16.2435 21.1933L12.1241 16.9459Z" fill="#F7AD3F"/>
<path d="M30.669 38.3886C27.5019 39.3944 23.9131 38.6033 21.4067 36.0168L21.0915 35.6914L25.2065 31.4403L25.5225 31.7664C26.8599 33.1458 29.0279 33.1458 30.3638 31.7679C31.6962 30.3922 31.6983 28.1622 30.3566 26.7769L29.5519 25.9457L25.4361 21.6945L21.0872 17.2027L25.2065 12.9561L29.5519 17.4449L33.667 21.6945L34.4753 22.5302C36.8427 24.9733 37.6611 28.4103 36.924 31.5368C39.6355 31.9298 41.72 34.3343 41.72 37.2402C41.72 40.4217 39.2202 42.9985 36.1394 42.9985C33.4373 42.9992 31.1844 41.0204 30.669 38.3886Z" fill="#EF4135"/>
<path d="M29.0638 26.4498L24.7191 30.9387L20.6033 35.1898L19.7957 36.0225C17.4182 38.4775 14.0655 39.3117 11.0215 38.5325C10.4535 41.0915 8.23298 42.9983 5.58127 42.9998C2.4984 42.9998 -0.000719637 40.4215 1.55446e-07 37.2415C1.55446e-07 34.5183 1.83187 32.2349 4.29284 31.6354C3.51402 28.48 4.32091 24.9939 6.71422 22.5241L7.02949 22.2002L11.1489 26.4469L10.8307 26.773C9.49406 28.1524 9.4955 30.3868 10.8322 31.7684C12.1731 33.1523 14.3462 33.1493 15.6778 31.7743L16.484 30.9416L20.5997 26.692L24.9487 22.2002L29.0638 26.4498Z" fill="#5091CD"/>
<path d="M11.2252 5.62647L11.3181 5.60493C13.982 4.96091 16.8857 5.66139 19.0184 7.70413L18.2612 8.48483C15.6131 5.43557 11.2252 5.62647 11.2252 5.62647Z" fill="url(#paint0_linear_54_102)"/>
<path d="M9.26003 12.7935C8.7936 14.2925 9.13622 15.9994 10.2836 17.1835L11.089 18.0132L15.2084 22.2614L19.0182 26.1887L18.0724 27.1825L10.0194 18.9819L9.31905 18.0244C8.16954 16.4496 8.19905 14.3251 9.26003 12.7935Z" fill="url(#paint1_linear_54_102)"/>
<path d="M25.0012 7.60974L24.0546 8.57021L19.2155 13.4839L14.7391 18.0292L13.5601 16.9536L22.9008 7.34902L23.997 6.50741C25.8023 5.12354 28.6757 4.99058 30.3406 5.84927C30.3406 5.84927 27.0677 5.47712 25.0012 7.60974Z" fill="url(#paint2_linear_54_102)"/>
<path d="M34.2262 26.1789L33.2955 25.2013L28.5333 20.2074L24.1296 15.5878L25.1719 14.3711L34.4795 24.0114L35.2951 25.1427C36.636 27.0056 36.7649 29.971 35.9328 31.6891C35.9328 31.6891 36.2927 28.3115 34.2262 26.1789Z" fill="url(#paint3_linear_54_102)"/>
<path d="M12.0658 33.5879C13.5183 34.0693 15.1724 33.7157 16.3205 32.5316L17.1245 31.7004L21.2403 27.4493L25.0458 23.5176L26.0089 24.4936L18.0638 32.8043L17.136 33.527C15.6086 34.714 13.5507 34.6836 12.0658 33.5879Z" fill="url(#paint4_linear_54_102)"/>
<path d="M1.72449 3.7386C1.72449 2.69123 3.42896 1.0459 5.53291 1.0459C7.63614 1.0459 9.34133 2.75512 9.34133 3.7386C9.34133 5.22572 7.63614 6.42983 5.53291 6.42983C3.42967 6.42983 1.72449 5.22572 1.72449 3.7386Z" fill="url(#paint5_linear_54_102)"/>
<path d="M32.3784 3.69759C32.3784 2.65022 34.0836 1.00488 36.1868 1.00488C38.2901 1.00488 39.9953 2.7141 39.9953 3.69759C39.9953 5.18471 38.2901 6.3903 36.1868 6.3903C34.0843 6.3903 32.3784 5.18471 32.3784 3.69759Z" fill="url(#paint6_linear_54_102)"/>
<path d="M1.72449 35.2816C1.72449 34.4578 2.98268 33.1646 4.536 33.1646C6.08931 33.1646 7.3475 34.5083 7.3475 35.2816C7.3475 36.4493 6.08931 37.3986 4.536 37.3986C2.98268 37.3986 1.72449 36.4493 1.72449 35.2816Z" fill="url(#paint7_linear_54_102)"/>
<path d="M34.3723 35.2816C34.3723 34.4578 35.6305 33.1646 37.1845 33.1646C38.7371 33.1646 39.9953 34.5083 39.9953 35.2816C39.9953 36.4493 38.7371 37.3986 37.1845 37.3986C35.6305 37.3979 34.3723 36.4493 34.3723 35.2816Z" fill="url(#paint8_linear_54_102)"/>
<path d="M62.6342 8.49854V26.517C62.6342 28.1104 62.1656 29.4608 61.2414 30.5282C60.1135 31.8296 58.4292 32.49 56.2352 32.49L54.268 32.3407L48.3427 31.3364L47.3588 33.6362L53.3798 34.5951C54.5034 34.7734 55.5507 34.8633 56.4908 34.8633C59.7478 34.8633 62.2066 33.9192 63.7995 32.0592C65.0822 30.5386 65.7329 28.5523 65.7329 26.1545V8.49854H62.6342Z" fill="black"/>
<path d="M88.6381 18.4477C86.2751 17.1173 83.4513 16.4443 80.2439 16.4443C77.0588 16.4443 74.2358 17.1173 71.8526 18.4462C68.8453 20.1354 67.3193 22.5718 67.3193 25.6879C67.3193 28.804 68.8446 31.236 71.8526 32.9118C74.2351 34.2422 77.0574 34.9137 80.2439 34.9137C83.4405 34.9137 86.2578 34.2467 88.6187 32.9289C91.6037 31.2516 93.1174 28.8159 93.1174 25.6879C93.1167 22.5622 91.6094 20.125 88.6381 18.4477ZM86.8163 31.0852C84.9945 32.1541 82.7826 32.6957 80.2432 32.6957C77.6462 32.6957 75.417 32.1645 73.6182 31.1201C71.4322 29.8551 70.3684 28.0761 70.3684 25.6783C70.3684 23.3161 71.4617 21.4858 73.6175 20.2394C75.4177 19.1928 77.6476 18.6624 80.2432 18.6624C82.8165 18.6624 85.0399 19.1928 86.8523 20.2394C88.9851 21.4962 90.0669 23.3265 90.0669 25.6783C90.0669 28.0085 88.9728 29.8276 86.8163 31.0852Z" fill="black"/>
<path d="M116.046 18.4477C113.685 17.1173 110.86 16.4443 107.654 16.4443C104.469 16.4443 101.645 17.1173 99.2623 18.4462H99.2608C96.2535 20.1354 94.729 22.5718 94.729 25.6879C94.729 28.804 96.2542 31.236 99.2623 32.9118C101.644 34.2422 104.466 34.9137 107.654 34.9137C110.849 34.9137 113.666 34.2467 116.027 32.9289C119.013 31.2516 120.526 28.8159 120.526 25.6879C120.525 22.5607 119.018 20.125 116.046 18.4477ZM114.225 31.0852C112.403 32.1541 110.192 32.6957 107.653 32.6957C105.055 32.6957 102.827 32.1645 101.027 31.1201C98.8412 29.8551 97.778 28.0761 97.778 25.6783C97.778 23.3161 98.8707 21.4858 101.027 20.2394C102.827 19.1928 105.057 18.6624 107.653 18.6624C110.225 18.6624 112.448 19.1928 114.261 20.2394C116.393 21.4962 117.476 23.3265 117.476 25.6783C117.476 28.0085 116.382 29.8276 114.225 31.0852Z" fill="black"/>
<path d="M153.861 17.9983C152.176 16.968 150.02 16.4443 147.45 16.4443C144.183 16.4443 141.533 17.5051 139.552 19.5634C137.64 17.5051 135.001 16.4443 131.681 16.4443C129.004 16.4443 126.818 17.026 125.138 18.135C125.138 17.7094 125.138 16.7013 125.138 16.7013H122.187V34.6047H125.138V22.3542C125.336 21.471 125.902 20.6598 126.815 19.9891C128.024 19.1088 129.624 18.6624 131.568 18.6624C133.288 18.6624 134.765 19.0278 135.962 19.7462C137.391 20.5892 138.086 21.7696 138.086 23.354V34.6047H140.986V23.354C140.986 21.7674 141.677 20.5803 143.1 19.7298C144.311 19.0226 145.805 18.6631 147.544 18.6631C149.279 18.6631 150.768 19.0286 151.971 19.7484C153.393 20.59 154.084 21.7703 154.084 23.3547V34.6054H157.034V23.7737C157.033 21.2244 155.967 19.2797 153.861 17.9983Z" fill="black"/>
<path d="M162.359 8.49854H159.409V34.6055H162.359V8.49854Z" fill="black"/>
<path d="M187.539 16.7011C187.539 16.7011 187.539 19.1487 187.539 19.766C185.009 17.5814 181.679 16.4434 177.593 16.4434C174.287 16.4434 171.446 17.0948 169.147 18.3762C166.224 20.0178 164.742 22.4787 164.742 25.6877C164.742 28.8521 166.259 31.2937 169.253 32.9465C171.606 34.2524 174.447 34.9135 177.697 34.9135C179.33 34.9135 180.908 34.7129 182.387 34.32C184.473 33.7643 186.194 32.9257 187.54 31.8464C187.54 32.451 187.54 34.6045 187.54 34.6045H190.489V16.7011H187.539ZM167.791 25.678C167.791 23.3062 168.882 21.47 171.031 20.2213C172.835 19.1873 175.076 18.6622 177.691 18.6622C180.921 18.6622 183.449 19.4763 185.205 21.0822C186.752 22.501 187.538 24.3491 187.538 26.5731C187.538 26.5731 187.538 28.5334 187.538 28.6939C186.298 30.1037 184.492 31.218 182.159 31.9972C180.787 32.4614 179.284 32.6947 177.69 32.6947C175.029 32.6947 172.782 32.1829 171.012 31.1712C168.845 29.9188 167.791 28.1227 167.791 25.678Z" fill="black"/>
<path d="M198.184 8.08545H195.234V28.7149H198.184V8.08545ZM196.743 31.2509C194.69 31.2509 194.384 32.3503 194.384 33.0047C194.384 33.6792 194.691 34.8112 196.743 34.8112C198.78 34.8112 199.084 33.6799 199.084 33.0047C199.084 32.3503 198.78 31.2509 196.743 31.2509Z" fill="black"/>
<path d="M203.979 8.77701L203.982 8.97014L203.991 9.2799V10.9802H203.434V8.08619H204.209L205.224 10.3949L206.233 8.08619H207V10.9802H206.447V9.2799L206.451 8.99466L206.454 8.77998L205.493 10.9802H204.95L203.979 8.77701ZM202.933 8.50811H201.712V10.9795H201.125V8.50811H199.902V8.08545H202.933V8.50811Z" fill="black"/>
<defs>
<linearGradient id="paint0_linear_54_102" x1="12.9447" y1="4.41836" x2="17.4041" y2="8.73936" gradientUnits="userSpaceOnUse">
<stop stop-color="white"/>
<stop offset="1" stop-color="#7AC143"/>
</linearGradient>
<linearGradient id="paint1_linear_54_102" x1="8.58789" y1="14.8019" x2="18.9358" y2="24.8287" gradientUnits="userSpaceOnUse">
<stop stop-color="white"/>
<stop offset="1" stop-color="#7AC143"/>
</linearGradient>
<linearGradient id="paint2_linear_54_102" x1="21.8326" y1="5.81944" x2="22.0888" y2="17.263" gradientUnits="userSpaceOnUse">
<stop stop-color="white"/>
<stop offset="1" stop-color="#F7AD3F"/>
</linearGradient>
<linearGradient id="paint3_linear_54_102" x1="35.9604" y1="22.9084" x2="24.8709" y2="23.1415" gradientUnits="userSpaceOnUse">
<stop stop-color="white"/>
<stop offset="1" stop-color="#EF4135"/>
</linearGradient>
<linearGradient id="paint4_linear_54_102" x1="13.3755" y1="34.9392" x2="24.2978" y2="24.3554" gradientUnits="userSpaceOnUse">
<stop stop-color="white"/>
<stop offset="1" stop-color="#5091CD"/>
</linearGradient>
<linearGradient id="paint5_linear_54_102" x1="5.53291" y1="1.34741" x2="5.53291" y2="6.09497" gradientUnits="userSpaceOnUse">
<stop stop-color="white"/>
<stop offset="1" stop-color="#7AC143"/>
</linearGradient>
<linearGradient id="paint6_linear_54_102" x1="36.1868" y1="1.16704" x2="36.1868" y2="6.1286" gradientUnits="userSpaceOnUse">
<stop stop-color="white"/>
<stop offset="1" stop-color="#F7AD3F"/>
</linearGradient>
<linearGradient id="paint7_linear_54_102" x1="4.53592" y1="33.1643" x2="4.53592" y2="37.1044" gradientUnits="userSpaceOnUse">
<stop stop-color="white"/>
<stop offset="1" stop-color="#5091CD"/>
</linearGradient>
<linearGradient id="paint8_linear_54_102" x1="37.1838" y1="33.1643" x2="37.1838" y2="37.1044" gradientUnits="userSpaceOnUse">
<stop stop-color="white"/>
<stop offset="1" stop-color="#EF4135"/>
</linearGradient>
</defs>
</svg>
