<svg width="65" height="60" viewBox="0 0 65 60" fill="none" xmlns="http://www.w3.org/2000/svg">
<path d="M49.1585 42.8571C48.6578 42.8581 48.1726 42.6837 47.787 42.3643L38.1013 34.2857H34.1585C29.6119 34.2857 25.2516 32.4796 22.0366 29.2647C18.8217 26.0498 17.0156 21.6894 17.0156 17.1428C17.0156 12.5963 18.8217 8.23593 22.0366 5.02102C25.2516 1.80612 29.6119 0 34.1585 0H47.0156C51.1795 0.0118896 55.1967 1.53887 58.3171 4.29583C61.4376 7.05278 63.4479 10.8512 63.9728 14.9819C64.4976 19.1126 63.5011 23.2931 61.1693 26.7428C58.8375 30.1926 55.3299 32.6757 51.3013 33.7285V40.7143C51.3023 41.1241 51.1858 41.5257 50.9655 41.8713C50.7452 42.2169 50.4304 42.4921 50.0585 42.6642C49.776 42.793 49.4689 42.8588 49.1585 42.8571ZM34.1585 4.28571C30.7485 4.28571 27.4783 5.6403 25.0671 8.05148C22.6559 10.4627 21.3013 13.7329 21.3013 17.1428C21.3013 20.5528 22.6559 23.823 25.0671 26.2342C27.4783 28.6454 30.7485 30 34.1585 30H38.8728C39.3734 29.999 39.8587 30.1734 40.2442 30.4928L47.0156 36.1285V31.9714C47.0105 31.4514 47.1946 30.9473 47.5337 30.5531C47.8727 30.1588 48.3436 29.9013 48.8585 29.8285C52.0252 29.3096 54.8833 27.6252 56.8714 25.1063C58.8595 22.5874 59.8339 19.4161 59.6029 16.2155C59.372 13.0148 57.9526 10.0162 55.6235 7.80882C53.2944 5.6014 50.224 4.34473 47.0156 4.28571H34.1585Z" fill="#F54646"/>
<path d="M42.7291 15H38.4434V19.2857H42.7291V15Z" fill="#F54646"/>
<path d="M32.0152 15H27.7295V19.2857H32.0152V15Z" fill="#F54646"/>
<path d="M53.4439 15H49.1582V19.2857H53.4439V15Z" fill="#F54646"/>
<path d="M14.8725 60C14.5621 60.0016 14.255 59.9358 13.9725 59.8071C13.6005 59.635 13.2857 59.3598 13.0655 59.0141C12.8452 58.6685 12.7286 58.267 12.7296 57.8571V50.8714C9.32008 49.963 6.27387 48.0247 4.00676 45.3209C1.73966 42.6171 0.362097 39.2796 0.0620895 35.7639C-0.237918 32.2482 0.554245 28.7256 2.33046 25.6768C4.10668 22.6279 6.78042 20.2015 9.98678 18.7286C10.2456 18.5922 10.5295 18.5102 10.8212 18.4878C11.1129 18.4653 11.4061 18.5028 11.6827 18.5979C11.9593 18.6931 12.2135 18.8438 12.4297 19.041C12.6458 19.2381 12.8193 19.4773 12.9395 19.7441C13.0597 20.0108 13.1239 20.2993 13.1284 20.5918C13.1328 20.8842 13.0773 21.1746 12.9653 21.4448C12.8533 21.715 12.6872 21.9595 12.4771 22.1631C12.267 22.3666 12.0175 22.5251 11.7439 22.6286C9.21519 23.7751 7.12556 25.7094 5.78753 28.1423C4.44949 30.5751 3.93495 33.3757 4.32085 36.1253C4.70676 38.8748 5.97237 41.4256 7.92842 43.3961C9.88447 45.3666 12.4258 46.651 15.1725 47.0571C15.6874 47.1299 16.1582 47.3874 16.4973 47.7817C16.8363 48.1759 17.0205 48.68 17.0153 49.2V53.3571L23.7868 47.7214C24.1601 47.3709 24.6466 47.1656 25.1582 47.1428H29.8725C31.5885 47.146 33.2875 46.8022 34.8673 46.132C36.4471 45.4618 37.8751 44.479 39.0653 43.2428C39.4632 42.8336 40.0072 42.5992 40.5779 42.5912C40.8604 42.5872 41.141 42.6389 41.4036 42.7434C41.6661 42.8478 41.9056 43.003 42.1082 43.2C42.3108 43.397 42.4726 43.6319 42.5844 43.8914C42.6962 44.151 42.7558 44.43 42.7598 44.7125C42.7638 44.9951 42.7121 45.2757 42.6076 45.5382C42.5032 45.8008 42.348 46.0402 42.151 46.2428C40.5543 47.8832 38.6452 49.1872 36.5364 50.0779C34.4275 50.9685 32.1617 51.4278 29.8725 51.4285H25.9296L16.2439 59.5071C15.8584 59.8266 15.3732 60.0009 14.8725 60Z" fill="#F54646"/>
</svg>
