<svg width="174" height="43" viewBox="0 0 174 43" fill="none" xmlns="http://www.w3.org/2000/svg">
<path d="M45.7387 15.6416H63.2943V18.8627H56.3823V37.0205H52.5933V18.8627H45.7097L45.7387 15.6416ZM62.5427 21.5421H65.7823V24.5352H65.8398C65.9558 24.1077 66.1586 23.7085 66.4472 23.3095C66.7367 22.9104 67.0838 22.5399 67.5176 22.2263C67.9222 21.8842 68.3853 21.6277 68.9059 21.4281C69.3972 21.2286 69.9178 21.1146 70.4384 21.1146C70.844 21.1146 71.1325 21.1431 71.2778 21.1431C71.4221 21.1716 71.5956 21.2001 71.7399 21.2001V24.4781C71.5088 24.4212 71.2485 24.3926 70.9882 24.3642C70.7279 24.3357 70.4969 24.3071 70.2366 24.3071C69.6575 24.3071 69.1086 24.4212 68.588 24.6492C68.0674 24.8773 67.6326 25.2193 67.2281 25.6469C66.8517 26.103 66.5339 26.6445 66.3029 27.3002C66.0708 27.9558 65.9558 28.7255 65.9558 29.5806V36.935H62.485L62.5427 21.5421ZM87.6766 37.0205H84.2352V34.854H84.1767C83.7429 35.6522 83.1073 36.2508 82.2679 36.7354C81.4295 37.22 80.5618 37.4481 79.6941 37.4481C77.64 37.4481 76.1367 36.9634 75.2105 35.9373C74.2854 34.9395 73.8223 33.4003 73.8223 31.3764V21.5421H77.2929V31.0344C77.2929 32.4027 77.5532 33.3718 78.1031 33.9134C78.6237 34.4835 79.3763 34.7685 80.3298 34.7685C81.0531 34.7685 81.6605 34.6546 82.1528 34.4265C82.6442 34.1985 83.0488 33.9134 83.3383 33.5428C83.6561 33.1723 83.8589 32.7162 84.0032 32.2031C84.1484 31.69 84.206 31.1199 84.206 30.5213V21.5421H87.6766V37.0205ZM93.5485 32.0605C93.6635 33.0582 94.0398 33.7424 94.7047 34.1699C95.3696 34.5691 96.1797 34.7685 97.1059 34.7685C97.4237 34.7685 97.8 34.7401 98.2046 34.683C98.6092 34.626 99.0147 34.5405 99.3618 34.398C99.7371 34.2554 100.027 34.056 100.258 33.7709C100.49 33.4858 100.605 33.1438 100.577 32.7162C100.547 32.2886 100.403 31.918 100.084 31.633C99.7664 31.348 99.3901 31.1484 98.928 30.9488C98.4649 30.7778 97.915 30.6353 97.3077 30.5213C96.7003 30.4072 96.0929 30.2647 95.4573 30.1222C94.8207 29.9797 94.1841 29.8086 93.5767 29.6092C92.9694 29.4096 92.4488 29.1531 91.9574 28.7825C91.4943 28.4404 91.0897 28.0128 90.8294 27.4712C90.5399 26.9296 90.3956 26.3025 90.3956 25.5044C90.3956 24.6492 90.5974 23.9651 91.0313 23.395C91.4368 22.8249 91.9857 22.3687 92.6223 22.0267C93.2589 21.6846 93.9813 21.4281 94.7622 21.2856C95.5431 21.1431 96.2957 21.086 96.9899 21.086C97.8 21.086 98.5809 21.1716 99.3033 21.3426C100.027 21.5136 100.721 21.7701 101.299 22.1693C101.906 22.5399 102.399 23.053 102.774 23.6515C103.18 24.2501 103.411 24.9912 103.527 25.8465H99.9107C99.7371 25.0198 99.3618 24.4781 98.7827 24.1932C98.1753 23.9081 97.5105 23.7655 96.7296 23.7655C96.4985 23.7655 96.1797 23.794 95.8619 23.8226C95.5148 23.8796 95.2253 23.9366 94.9075 24.0506C94.6179 24.1646 94.3576 24.3357 94.1548 24.5352C93.953 24.7347 93.837 25.0198 93.837 25.3618C93.837 25.7894 93.9813 26.103 94.2709 26.3595C94.5604 26.6161 94.9367 26.8156 95.4281 27.0151C95.8911 27.1861 96.44 27.3287 97.0474 27.4427C97.6547 27.5567 98.2914 27.6992 98.928 27.8418C99.5636 27.9843 100.171 28.1553 100.778 28.3549C101.386 28.5545 101.936 28.811 102.399 29.1815C102.861 29.5236 103.266 29.9512 103.555 30.4643C103.844 30.9774 103.989 31.633 103.989 32.3741C103.989 33.2862 103.787 34.056 103.353 34.7115C102.919 35.3387 102.369 35.8803 101.704 36.2793C101.039 36.6785 100.258 36.9634 99.4486 37.163C98.6092 37.334 97.8 37.4481 96.9899 37.4481C96.0062 37.4481 95.081 37.334 94.2426 37.106C93.4032 36.8779 92.6516 36.5359 92.0442 36.1083C91.4368 35.6522 90.9445 35.1107 90.5974 34.4265C90.2504 33.7709 90.0486 32.9727 90.0193 32.0321H93.5192V32.0605H93.5485ZM104.972 21.5421H107.605V16.8673H111.075V21.5136H114.199V24.0506H111.075V32.3172C111.075 32.6877 111.104 32.9727 111.133 33.2578C111.162 33.5144 111.249 33.7424 111.336 33.9134C111.452 34.0844 111.625 34.227 111.827 34.3125C112.059 34.398 112.347 34.455 112.753 34.455C112.984 34.455 113.244 34.455 113.475 34.4265C113.707 34.398 113.968 34.3695 114.199 34.3125V36.9634C113.823 37.0205 113.447 37.049 113.071 37.0775C112.695 37.1345 112.347 37.1345 111.943 37.1345C111.018 37.1345 110.294 37.049 109.744 36.8779C109.196 36.7069 108.762 36.4504 108.443 36.1368C108.125 35.7948 107.922 35.3957 107.807 34.9111C107.691 34.4265 107.633 33.8279 107.605 33.2007V24.0791H104.972V21.4852V21.5421ZM116.628 21.5421H119.896V23.6515H119.955C120.446 22.7393 121.112 22.1122 121.98 21.7132C122.847 21.3141 123.772 21.1146 124.814 21.1146C126.058 21.1146 127.127 21.3141 128.053 21.7701C128.978 22.1977 129.73 22.7679 130.337 23.5375C130.945 24.2787 131.408 25.1623 131.697 26.16C131.986 27.1577 132.159 28.2408 132.159 29.3525C132.159 30.4072 132.015 31.4049 131.755 32.3741C131.465 33.3433 131.061 34.227 130.511 34.9681C129.962 35.7093 129.268 36.3079 128.4 36.764C127.533 37.22 126.549 37.4481 125.392 37.4481C124.9 37.4481 124.38 37.391 123.887 37.3055C123.396 37.22 122.905 37.0775 122.442 36.8779C121.98 36.6785 121.545 36.4218 121.169 36.1083C120.764 35.7948 120.446 35.4242 120.186 35.0251H120.128V42.75H116.658V21.5421H116.628ZM128.747 29.2955C128.747 28.6114 128.661 27.9273 128.458 27.2717C128.284 26.6161 127.995 26.0459 127.619 25.5328C127.243 25.0198 126.78 24.6207 126.259 24.3071C125.71 23.9936 125.074 23.851 124.38 23.851C122.933 23.851 121.834 24.3357 121.083 25.3334C120.359 26.331 119.983 27.6708 119.983 29.3241C119.983 30.1222 120.07 30.8348 120.272 31.4905C120.475 32.146 120.736 32.7162 121.14 33.2007C121.516 33.6854 121.98 34.056 122.528 34.341C123.078 34.626 123.686 34.7685 124.409 34.7685C125.218 34.7685 125.855 34.5975 126.405 34.284C126.953 33.9705 127.387 33.5428 127.764 33.0582C128.111 32.5452 128.371 31.975 128.515 31.3194C128.661 30.6353 128.747 29.9797 128.747 29.2955ZM134.849 15.6416H138.321V18.8627H134.849V15.6416ZM134.849 21.5421H138.321V37.0205H134.849V21.5421ZM141.415 15.6416H144.886V37.0205H141.415V15.6416ZM155.471 37.4481C154.228 37.4481 153.1 37.2485 152.117 36.8209C151.133 36.3934 150.324 35.8518 149.63 35.1391C148.964 34.4265 148.443 33.5428 148.096 32.5452C147.749 31.5474 147.546 30.4358 147.546 29.267C147.546 28.0984 147.72 27.0151 148.096 26.0175C148.443 25.0198 148.964 24.1646 149.63 23.4234C150.295 22.7109 151.133 22.1407 152.117 21.7417C153.1 21.3426 154.228 21.1146 155.471 21.1146C156.715 21.1146 157.843 21.3141 158.827 21.7417C159.81 22.1407 160.62 22.7109 161.314 23.4234C161.979 24.1361 162.499 25.0198 162.846 26.0175C163.194 27.0151 163.396 28.0984 163.396 29.267C163.396 30.4643 163.223 31.5474 162.846 32.5452C162.471 33.5428 161.979 34.398 161.314 35.1391C160.649 35.8518 159.81 36.4218 158.827 36.8209C157.843 37.22 156.745 37.4481 155.471 37.4481ZM155.471 34.7401C156.224 34.7401 156.918 34.5691 157.467 34.2554C158.046 33.9419 158.48 33.5144 158.855 33.0013C159.232 32.4882 159.492 31.8895 159.665 31.2625C159.839 30.6068 159.926 29.9512 159.926 29.267C159.926 28.6114 159.839 27.9558 159.665 27.3002C159.492 26.6445 159.232 26.0745 158.855 25.5614C158.48 25.0483 158.017 24.6492 157.467 24.3357C156.889 24.0221 156.224 23.851 155.471 23.851C154.72 23.851 154.026 24.0221 153.476 24.3357C152.898 24.6492 152.464 25.0767 152.087 25.5614C151.712 26.0745 151.451 26.6445 151.277 27.3002C151.105 27.9558 151.018 28.6114 151.018 29.267C151.018 29.9512 151.105 30.6068 151.277 31.2625C151.451 31.918 151.712 32.4882 152.087 33.0013C152.464 33.5144 152.927 33.9419 153.476 34.2554C154.055 34.5975 154.72 34.7401 155.471 34.7401ZM164.437 21.5421H167.07V16.8673H170.54V21.5136H173.664V24.0506H170.54V32.3172C170.54 32.6877 170.57 32.9727 170.598 33.2578C170.627 33.5144 170.714 33.7424 170.801 33.9134C170.917 34.0844 171.09 34.227 171.292 34.3125C171.524 34.398 171.813 34.455 172.218 34.455C172.449 34.455 172.71 34.455 172.941 34.4265C173.173 34.398 173.433 34.3695 173.664 34.3125V36.9634C173.288 37.0205 172.912 37.049 172.536 37.0775C172.16 37.1345 171.813 37.1345 171.408 37.1345C170.483 37.1345 169.759 37.049 169.21 36.8779C168.661 36.7069 168.227 36.4504 167.908 36.1368C167.59 35.7948 167.388 35.3957 167.272 34.9111C167.156 34.4265 167.099 33.8279 167.07 33.2007V24.0791H164.437V21.4852V21.5421Z" fill="black"/>
<path d="M41.6891 15.6415H25.8106L20.9226 0.761719L16.0057 15.6415L0.127197 15.613L12.9689 24.8201L8.05198 39.6999L20.8937 30.4927L33.7354 39.6999L28.8474 24.8201L41.6891 15.6415Z" fill="#00B67A"/>
<path d="M29.9466 28.1845L28.8475 24.8208L20.9227 30.4933L29.9466 28.1845Z" fill="#005128"/>
</svg>
