<svg width="68" height="68" viewBox="0 0 68 68" fill="none" xmlns="http://www.w3.org/2000/svg">
<path d="M36.2667 67.9998H31.7333C30.0627 68.0119 28.4462 67.4085 27.192 66.3049C25.9378 65.2012 25.1338 63.6744 24.9334 62.0159C23.4123 61.5351 21.9339 60.9286 20.5134 60.2025C19.1982 61.2425 17.5451 61.7599 15.8716 61.6553C14.1981 61.5507 12.6223 60.8315 11.4468 59.6359L8.36413 56.4399C7.16848 55.2644 6.44929 53.6885 6.34469 52.0151C6.2401 50.3416 6.75749 48.6885 7.79747 47.3733C7.07714 45.9893 6.4707 44.549 5.98415 43.0666C4.32557 42.8662 2.79882 42.0622 1.69514 40.808C0.591464 39.5538 -0.0118894 37.9373 0.000177564 36.2667V31.7333C-0.0118894 30.0627 0.591464 28.4462 1.69514 27.192C2.79882 25.9378 4.32557 25.1338 5.98415 24.9334C6.46488 23.4123 7.07141 21.9339 7.79747 20.5134C6.75749 19.1982 6.2401 17.5451 6.34469 15.8716C6.44929 14.1981 7.16848 12.6223 8.36413 11.4468L11.5601 8.36413C12.7356 7.16848 14.3115 6.44929 15.9849 6.34469C17.6584 6.2401 19.3115 6.75749 20.6267 7.79747C22.0107 7.07714 23.451 6.4707 24.9334 5.98415C25.1338 4.32557 25.9378 2.79882 27.192 1.69514C28.4462 0.591464 30.0627 -0.0118894 31.7333 0.000177564H36.2667C37.9373 -0.0118894 39.5538 0.591464 40.808 1.69514C42.0622 2.79882 42.8662 4.32557 43.0666 5.98415C44.5877 6.46488 46.0662 7.07141 47.4866 7.79747C48.8018 6.75749 50.4549 6.2401 52.1284 6.34469C53.8019 6.44929 55.3777 7.16848 56.5532 8.36413L59.6359 11.5601C60.8315 12.7356 61.5507 14.3115 61.6553 15.9849C61.7599 17.6584 61.2425 19.3115 60.2025 20.6267C60.9286 22.0472 61.5351 23.5256 62.0159 25.0467C63.6551 25.2448 65.1662 26.0325 66.2673 27.2629C67.3684 28.4933 67.9842 30.0823 67.9998 31.7333V36.2667C68.0119 37.9373 67.4085 39.5538 66.3049 40.808C65.2012 42.0622 63.6744 42.8662 62.0159 43.0666C61.5351 44.5877 60.9286 46.0662 60.2025 47.4866C61.2425 48.8018 61.7599 50.4549 61.6553 52.1284C61.5507 53.8019 60.8315 55.3777 59.6359 56.5532L56.4399 59.6359C55.2644 60.8315 53.6885 61.5507 52.0151 61.6553C50.3416 61.7599 48.6885 61.2425 47.3733 60.2025C45.9528 60.9286 44.4744 61.5351 42.9533 62.0159C42.7552 63.6551 41.9675 65.1662 40.7371 66.2673C39.5067 67.3684 37.9177 67.9842 36.2667 67.9998ZM20.1961 55.1479C20.6038 55.1409 21.005 55.251 21.3521 55.4652C23.3562 56.644 25.5153 57.5366 27.7667 58.1172C28.2654 58.2457 28.7055 58.5402 29.0145 58.9522C29.3235 59.3642 29.483 59.8691 29.4667 60.3839V61.1999C29.4667 61.801 29.7055 62.3775 30.1306 62.8026C30.5557 63.2277 31.1322 63.4665 31.7333 63.4665H36.2667C36.8678 63.4665 37.4443 63.2277 37.8694 62.8026C38.2945 62.3775 38.5333 61.801 38.5333 61.1999V60.3159C38.517 59.8011 38.6765 59.2962 38.9855 58.8842C39.2945 58.4722 39.7346 58.1777 40.2333 58.0492C42.4847 57.4686 44.6438 56.576 46.6479 55.3972C47.0786 55.1436 47.5811 55.0394 48.0771 55.1009C48.5731 55.1624 49.0349 55.3861 49.3906 55.7372L50.0253 56.3719C50.236 56.5843 50.4867 56.753 50.7629 56.868C51.0391 56.9831 51.3354 57.0424 51.6346 57.0424C51.9338 57.0424 52.2301 56.9831 52.5063 56.868C52.7825 56.753 53.0332 56.5843 53.2439 56.3719L56.4399 53.1759C56.6523 52.9652 56.821 52.7145 56.936 52.4383C57.0511 52.1621 57.1104 51.8658 57.1104 51.5666C57.1104 51.2674 57.0511 50.9711 56.936 50.6949C56.821 50.4187 56.6523 50.168 56.4399 49.9573L55.8052 49.3226C55.4541 48.9669 55.2304 48.5051 55.1689 48.0091C55.1074 47.5131 55.2116 47.0106 55.4652 46.5799C56.644 44.5758 57.5366 42.4167 58.1172 40.1653C58.2457 39.6666 58.5402 39.2265 58.9522 38.9175C59.3642 38.6085 59.8691 38.449 60.3839 38.4653H61.1999C61.801 38.4653 62.3775 38.2265 62.8026 37.8014C63.2277 37.3763 63.4665 36.7998 63.4665 36.1987V31.7333C63.4665 31.1322 63.2277 30.5557 62.8026 30.1306C62.3775 29.7055 61.801 29.4667 61.1999 29.4667H60.3159C59.8011 29.483 59.2962 29.3235 58.8842 29.0145C58.4722 28.7055 58.1777 28.2654 58.0492 27.7667C57.4686 25.5153 56.576 23.3562 55.3972 21.3521C55.1436 20.9214 55.0394 20.419 55.1009 19.9229C55.1624 19.4269 55.3861 18.9651 55.7372 18.6094L56.3719 17.9748C56.5843 17.764 56.753 17.5133 56.868 17.2371C56.9831 16.9609 57.0424 16.6647 57.0424 16.3654C57.0424 16.0662 56.9831 15.7699 56.868 15.4937C56.753 15.2175 56.5843 14.9668 56.3719 14.7561L53.2439 11.5601C53.0332 11.3477 52.7825 11.179 52.5063 11.064C52.2301 10.9489 51.9338 10.8896 51.6346 10.8896C51.3354 10.8896 51.0391 10.9489 50.7629 11.064C50.4867 11.179 50.236 11.3477 50.0253 11.5601L49.3906 12.1948C49.0349 12.5459 48.5731 12.7696 48.0771 12.8311C47.5811 12.8926 47.0786 12.7884 46.6479 12.5348C44.6438 11.356 42.4847 10.4634 40.2333 9.88279C39.7346 9.7543 39.2945 9.45981 38.9855 9.04782C38.6765 8.63582 38.517 8.13088 38.5333 7.61614V6.80014C38.5333 6.19899 38.2945 5.62246 37.8694 5.19738C37.4443 4.7723 36.8678 4.53349 36.2667 4.53349H31.7333C31.1322 4.53349 30.5557 4.7723 30.1306 5.19738C29.7055 5.62246 29.4667 6.19899 29.4667 6.80014V7.68414C29.483 8.19888 29.3235 8.70382 29.0145 9.11581C28.7055 9.52781 28.2654 9.8223 27.7667 9.95079C25.5153 10.5314 23.3562 11.424 21.3521 12.6028C20.9214 12.8564 20.419 12.9606 19.9229 12.8991C19.4269 12.8376 18.9651 12.6139 18.6094 12.2628L17.9748 11.5601C17.764 11.3477 17.5133 11.179 17.2371 11.064C16.9609 10.9489 16.6647 10.8896 16.3654 10.8896C16.0662 10.8896 15.7699 10.9489 15.4937 11.064C15.2175 11.179 14.9668 11.3477 14.7561 11.5601L11.5601 14.7561C11.3477 14.9668 11.179 15.2175 11.064 15.4937C10.9489 15.7699 10.8896 16.0662 10.8896 16.3654C10.8896 16.6647 10.9489 16.9609 11.064 17.2371C11.179 17.5133 11.3477 17.764 11.5601 17.9748L12.1948 18.6094C12.5459 18.9651 12.7696 19.4269 12.8311 19.9229C12.8926 20.419 12.7884 20.9214 12.5348 21.3521C11.356 23.3562 10.4634 25.5153 9.88279 27.7667C9.7543 28.2654 9.45981 28.7055 9.04782 29.0145C8.63582 29.3235 8.13088 29.483 7.61614 29.4667H6.80014C6.19899 29.4667 5.62246 29.7055 5.19738 30.1306C4.7723 30.5557 4.53349 31.1322 4.53349 31.7333V36.2667C4.53349 36.8678 4.7723 37.4443 5.19738 37.8694C5.62246 38.2945 6.19899 38.5333 6.80014 38.5333H7.68414C8.19888 38.517 8.70382 38.6765 9.11581 38.9855C9.52781 39.2945 9.8223 39.7346 9.95079 40.2333C10.5314 42.4847 11.424 44.6438 12.6028 46.6479C12.8564 47.0786 12.9606 47.5811 12.8991 48.0771C12.8376 48.5731 12.6139 49.0349 12.2628 49.3906L11.6281 50.0253C11.4157 50.236 11.247 50.4867 11.132 50.7629C11.0169 51.0391 10.9576 51.3354 10.9576 51.6346C10.9576 51.9338 11.0169 52.2301 11.132 52.5063C11.247 52.7825 11.4157 53.0332 11.6281 53.2439L14.7561 56.4399C14.9668 56.6523 15.2175 56.821 15.4937 56.936C15.7699 57.0511 16.0662 57.1104 16.3654 57.1104C16.6647 57.1104 16.9609 57.0511 17.2371 56.936C17.5133 56.821 17.764 56.6523 17.9748 56.4399L18.6094 55.8052C19.0316 55.3865 19.6014 55.1504 20.1961 55.1479Z" fill="#F54646"/>
<path d="M34 49.8665C30.8619 49.8665 27.7943 48.9359 25.185 47.1925C22.5758 45.449 20.5421 42.971 19.3412 40.0718C18.1403 37.1725 17.8261 33.9823 18.4383 30.9045C19.0505 27.8267 20.5617 24.9995 22.7806 22.7805C24.9996 20.5615 27.8268 19.0504 30.9046 18.4382C33.9824 17.826 37.1727 18.1402 40.0719 19.3411C42.9711 20.542 45.4492 22.5756 47.1926 25.1849C48.936 27.7941 49.8666 30.8618 49.8666 33.9999C49.8666 38.208 48.1949 42.2437 45.2194 45.2193C42.2438 48.1948 38.2081 49.8665 34 49.8665ZM34 22.6666C31.7585 22.6666 29.5673 23.3313 27.7036 24.5766C25.8398 25.8219 24.3872 27.592 23.5294 29.6628C22.6716 31.7337 22.4472 34.0125 22.8845 36.2109C23.3218 38.4093 24.4012 40.4287 25.9862 42.0137C27.5712 43.5987 29.5906 44.6781 31.789 45.1154C33.9874 45.5527 36.2662 45.3283 38.3371 44.4705C40.408 43.6127 42.178 42.1601 43.4233 40.2963C44.6686 38.4326 45.3333 36.2414 45.3333 33.9999C45.3333 30.9941 44.1392 28.1115 42.0138 25.9861C39.8884 23.8607 37.0058 22.6666 34 22.6666Z" fill="#F54646"/>
<path d="M31.4343 39.7643L26.2343 34.5344C25.9219 34.2202 25.9219 33.7108 26.2343 33.3965L27.3656 32.2587C27.6781 31.9444 28.1846 31.9444 28.497 32.2587L32 35.7817L39.503 28.2357C39.8154 27.9214 40.3219 27.9214 40.6344 28.2357L41.7657 29.3735C42.0781 29.6877 42.0781 30.1972 41.7657 30.5114L32.5657 39.7644C32.2532 40.0786 31.7467 40.0786 31.4343 39.7643Z" fill="#F54646"/>
</svg>
