<svg width="27" height="18" viewBox="0 0 27 18" fill="none" xmlns="http://www.w3.org/2000/svg">
<path d="M24.75 18H2.25C1.00912 18 0 16.9909 0 15.75V2.25C0 1.00912 1.00912 0 2.25 0H24.75C25.9909 0 27 1.00912 27 2.25V15.75C27 16.9909 25.9909 18 24.75 18ZM2.25 1.125C1.62956 1.125 1.125 1.62956 1.125 2.25V15.75C1.125 16.3704 1.62956 16.875 2.25 16.875H24.75C25.3704 16.875 25.875 16.3704 25.875 15.75V2.25C25.875 1.62956 25.3704 1.125 24.75 1.125H2.25Z" fill="white"/>
<path d="M13.5 11.9199L3.63205 5.53498C3.37105 5.36567 3.29624 5.01805 3.46499 4.75705C3.63374 4.49605 3.98193 4.4218 4.24293 4.58998L13.5 10.58L22.757 4.58998C23.0181 4.4218 23.3662 4.49605 23.535 4.75705C23.7037 5.01805 23.6289 5.36567 23.3679 5.53498L13.5 11.9199Z" fill="white"/>
<path d="M3.37552 14.6248C3.19383 14.6248 3.01496 14.5371 2.90696 14.3745C2.73427 14.1158 2.80402 13.767 3.06277 13.5943L8.12527 10.2193C8.38402 10.0466 8.73333 10.1164 8.90546 10.3751C9.07814 10.6339 9.00839 10.9826 8.74964 11.1553L3.68714 14.5303C3.59096 14.5939 3.48239 14.6248 3.37552 14.6248Z" fill="white"/>
<path d="M23.6244 14.6248C23.5175 14.6248 23.409 14.5939 23.3128 14.5303L18.2503 11.1553C17.9915 10.9826 17.9218 10.6339 18.0945 10.3751C18.2666 10.1164 18.6153 10.0466 18.8746 10.2193L23.9371 13.5943C24.1959 13.767 24.2656 14.1158 24.093 14.3745C23.985 14.5371 23.8061 14.6248 23.6244 14.6248Z" fill="white"/>
</svg>
